<svg xmlns="http://www.w3.org/2000/svg" width="35.617" height="35.617" viewBox="0 0 35.617 35.617">
  <path id="Icon_awesome-behance-square" data-name="Icon awesome-behance-square" d="M14.827,23c0,1.534-1.113,2.019-2.48,2.019H8.761V20.814h3.657C13.9,20.822,14.827,21.434,14.827,23Zm-.612-6.543c0-1.407-1.089-1.741-2.3-1.741H8.769v3.562h3.395C13.364,18.278,14.215,17.753,14.215,16.457ZM24.733,18.3a2.37,2.37,0,0,0-2.52,2.361h4.945A2.266,2.266,0,0,0,24.733,18.3ZM35.617,6.066V34.051A3.817,3.817,0,0,1,31.8,37.867H3.816A3.817,3.817,0,0,1,0,34.051V6.066A3.817,3.817,0,0,1,3.816,2.25H31.8A3.817,3.817,0,0,1,35.617,6.066ZM21.6,14.414h6.185v-1.5H21.6Zm-3.419,8.769a3.953,3.953,0,0,0-2.783-4.1,2.968,2.968,0,0,0,2.083-2.942c0-3.037-2.266-3.776-4.881-3.776H5.406V27.627h7.4C15.582,27.611,18.182,26.283,18.182,23.183Zm12.029-1.177c0-3.268-1.916-5.994-5.374-5.994a5.549,5.549,0,0,0-5.653,5.851c0,3.442,2.17,5.8,5.653,5.8a4.929,4.929,0,0,0,5.176-3.721H27.333a2.515,2.515,0,0,1-2.4,1.439,2.494,2.494,0,0,1-2.711-2.806h7.966C30.195,22.4,30.211,22.2,30.211,22.006Z" transform="translate(0 -2.25)" fill="#0018ff"/>
</svg>
