<svg xmlns="http://www.w3.org/2000/svg" width="582.029" height="526" viewBox="0 0 582.029 526">
  <g id="Group_451" data-name="Group 451" transform="translate(-40.741 -56.532)">
    <path id="Path_582" data-name="Path 582" d="M512.068,355.207H309.549V57.942H512.068ZM315,349.759H506.62V63.39H315Z" transform="translate(97.308 0.51)" fill="#ebebeb"/>
    <rect id="Rectangle_112" data-name="Rectangle 112" width="5.448" height="287.67" transform="translate(505.312 65.324)" fill="#ebebeb"/>
    <g id="Group_360" data-name="Group 360" transform="translate(393.462 57.388)">
      <g id="Group_356" data-name="Group 356" transform="translate(8.454 12.078)">
        <rect id="Rectangle_113" data-name="Rectangle 113" width="212.398" height="7.586" fill="#ebebeb"/>
        <rect id="Rectangle_114" data-name="Rectangle 114" width="212.398" height="7.586" transform="translate(0 8.535)" fill="#ebebeb"/>
        <rect id="Rectangle_115" data-name="Rectangle 115" width="212.398" height="7.586" transform="translate(0 17.069)" fill="#ebebeb"/>
        <rect id="Rectangle_116" data-name="Rectangle 116" width="212.398" height="7.586" transform="translate(0 25.604)" fill="#ebebeb"/>
        <rect id="Rectangle_117" data-name="Rectangle 117" width="212.398" height="7.586" transform="translate(0 34.139)" fill="#ebebeb"/>
        <rect id="Rectangle_118" data-name="Rectangle 118" width="212.398" height="7.586" transform="translate(0 42.674)" fill="#ebebeb"/>
        <rect id="Rectangle_119" data-name="Rectangle 119" width="212.398" height="7.586" transform="translate(0 51.208)" fill="#ebebeb"/>
        <rect id="Rectangle_120" data-name="Rectangle 120" width="212.398" height="7.586" transform="translate(0 59.743)" fill="#ebebeb"/>
        <rect id="Rectangle_121" data-name="Rectangle 121" width="212.398" height="7.586" transform="translate(0 68.278)" fill="#ebebeb"/>
      </g>
      <g id="Group_359" data-name="Group 359" transform="translate(201.576 10.539)">
        <g id="Group_357" data-name="Group 357">
          <rect id="Rectangle_122" data-name="Rectangle 122" width="1.362" height="174.863" transform="translate(1.733)" fill="#263238"/>
          <path id="Path_583" data-name="Path 583" d="M452.551,199.79h-4.835l1.212-6.946h2.411Z" transform="translate(-447.716 -18.583)" fill="#263238"/>
        </g>
        <g id="Group_358" data-name="Group 358" transform="translate(4.906)">
          <rect id="Rectangle_123" data-name="Rectangle 123" width="1.362" height="239.346" transform="translate(1.737)" fill="#263238"/>
          <path id="Path_584" data-name="Path 584" d="M456.152,246.226h-4.835l1.212-6.946h2.411Z" transform="translate(-451.317 -1.773)" fill="#263238"/>
        </g>
      </g>
      <rect id="Rectangle_124" data-name="Rectangle 124" width="229.307" height="15.871" fill="#dbdbdb"/>
    </g>
    <path id="Path_585" data-name="Path 585" d="M68.876,184.692c0-1.139.153-4.176.153-5.466,0-5.542-1.975-8.048-7.137-8.2-2.43-.153-3.871-1.594-3.871-3.643s1.441-3.494,3.871-3.645c5.162-.227,7.137-2.657,7.137-8.275,0-1.29-.153-4.327-.153-5.466,0-7.364,3.112-12.071,14.88-14.652a3.28,3.28,0,0,1,2.05,6.226c-7.363,2.277-8.428,4.631-8.428,9.793,0,1.519.154,4.023.154,5.618,0,5.922-2.885,8.807-7.9,10.4,5.087,1.67,7.9,4.478,7.9,10.4,0,1.594-.154,4.1-.154,5.618,0,5.162,1.065,7.515,8.428,9.793a3.28,3.28,0,0,1-2.05,6.226C71.988,196.839,68.876,192.132,68.876,184.692Z" transform="translate(6.255 28.49)" fill="#ebebeb"/>
    <path id="Path_586" data-name="Path 586" d="M103.718,150c0,1.139-.151,4.176-.151,5.466,0,5.618,2.05,8.048,7.213,8.275,2.352.151,3.8,1.594,3.8,3.645s-1.444,3.491-3.8,3.643c-5.163.151-7.213,2.657-7.213,8.2,0,1.29.151,4.327.151,5.466,0,7.441-3.112,12.148-14.878,14.729a3.267,3.267,0,0,1-1.975-6.226c7.289-2.277,8.352-4.631,8.352-9.793,0-1.52-.151-4.025-.151-5.618,0-5.922,2.885-8.807,7.9-10.4-5.088-1.671-7.9-4.48-7.9-10.4,0-1.595.151-4.1.151-5.618,0-5.162-1.062-7.515-8.352-9.793a3.267,3.267,0,0,1,1.975-6.226C100.606,137.926,103.718,142.633,103.718,150Z" transform="translate(15.9 28.49)" fill="#ebebeb"/>
    <path id="Path_587" data-name="Path 587" d="M220.912,104.752a4.452,4.452,0,0,1-3.108,7.633,4.721,4.721,0,0,1-3.251-1.272L194.7,90.972c-.212-.071-.282-.212-.354-.424a.989.989,0,0,0-.212-.143,1.867,1.867,0,0,1-.211-.564.383.383,0,0,1-.212-.283c-.069-.142-.069-.354-.14-.424,0-.212-.142-.283-.142-.354v-.494c0-.142-.069-.211-.069-.425,0-.069.069-.282.069-.353v-.494c0-.142.142-.212.142-.283.071-.211.071-.353.14-.564,0-.072.072-.072.072-.142a5.223,5.223,0,0,1,.351-.636.139.139,0,0,1,.142-.142,1.335,1.335,0,0,1,.425-.494l19.857-20.14a4.613,4.613,0,0,1,6.359,0,4.479,4.479,0,0,1,0,6.361L204.165,87.862Z" transform="translate(55.246 2.466)" fill="#ebebeb"/>
    <path id="Path_588" data-name="Path 588" d="M226.9,106.985l17.311-41.2a3.924,3.924,0,0,1,5.161-2.048,3.815,3.815,0,0,1,1.978,5.018l-17.312,41.268a3.919,3.919,0,0,1-3.605,2.332,3.352,3.352,0,0,1-1.411-.283A3.815,3.815,0,0,1,226.9,106.985Z" transform="translate(67.276 2.494)" fill="#ebebeb"/>
    <path id="Path_589" data-name="Path 589" d="M277.349,90.406a.069.069,0,0,1-.069.071,3.259,3.259,0,0,1-.494.5l-19.857,20.14a4.611,4.611,0,0,1-6.361,0,4.482,4.482,0,0,1,0-6.361l16.748-16.89L250.568,70.974a4.482,4.482,0,0,1,0-6.361,4.615,4.615,0,0,1,6.361,0l19.857,20.14a3.318,3.318,0,0,1,.494.494c.069,0,.069.142.069.142a5.868,5.868,0,0,1,.354.636c0,.069.072.069.072.142a3.14,3.14,0,0,0,.212.635c0,.071.069.071.069.212v.494c0,.071.069.283.069.353s-.069.283-.069.354v.565c0,.071-.069.071-.069.142a5.759,5.759,0,0,0-.212.636c0,.071-.072.071-.072.212C277.633,89.911,277.492,90.124,277.349,90.406Z" transform="translate(75.477 2.466)" fill="#ebebeb"/>
    <ellipse id="Ellipse_36" data-name="Ellipse 36" cx="274.497" cy="21.879" rx="274.497" ry="21.879" transform="translate(51.254 538.774)" fill="#ebebeb"/>
    <path id="Path_590" data-name="Path 590" d="M483.885,458.083H318.92L351.812,266.75H475.168Z" transform="translate(100.7 76.098)" fill="#dbdbdb"/>
    <path id="Path_591" data-name="Path 591" d="M446.042,458.083H431.578L423.46,266.75h13.865Z" transform="translate(138.543 76.098)" fill="#a6a6a6"/>
    <line id="Line_5" data-name="Line 5" x2="570.02" transform="translate(40.741 534.183)" fill="none" stroke="#263238" stroke-miterlimit="10" stroke-width="1"/>
    <g id="Group_363" data-name="Group 363" transform="translate(59.381 56.532)">
      <g id="Group_361" data-name="Group 361">
        <rect id="Rectangle_125" data-name="Rectangle 125" width="135.356" height="86.344" transform="translate(0.856 0.856)" fill="#fff"/>
        <path id="Path_592" data-name="Path 592" d="M191.494,144.588H54.427V56.532H191.494ZM56.138,142.877H189.784V58.244H56.138Z" transform="translate(-54.427 -56.532)" fill="#ebebeb"/>
      </g>
      <g id="Group_362" data-name="Group 362">
        <rect id="Rectangle_126" data-name="Rectangle 126" width="135.356" height="16.329" transform="translate(0.856 0.856)" fill="#ffee93"/>
        <path id="Path_593" data-name="Path 593" d="M191.494,74.573H54.427V56.532H191.494ZM56.138,72.861H189.784V58.244H56.138Z" transform="translate(-54.427 -56.532)" fill="#ffee93"/>
      </g>
    </g>
    <g id="Group_364" data-name="Group 364" transform="translate(67.346 61.562)">
      <path id="Path_594" data-name="Path 594" d="M68.493,64.028a4.121,4.121,0,1,1-4.109-3.8A3.965,3.965,0,0,1,68.493,64.028Z" transform="translate(-60.275 -60.225)" fill="#ffc727"/>
      <path id="Path_595" data-name="Path 595" d="M80.816,64.334a4.11,4.11,0,1,1-4.111-4.109A4.11,4.11,0,0,1,80.816,64.334Z" transform="translate(-55.815 -60.225)" fill="#ebebeb"/>
      <path id="Path_596" data-name="Path 596" d="M93.137,64.334a4.11,4.11,0,1,1-4.111-4.109A4.11,4.11,0,0,1,93.137,64.334Z" transform="translate(-51.355 -60.225)" fill="#fff"/>
    </g>
    <g id="Group_365" data-name="Group 365" transform="translate(83.599 89.631)">
      <path id="Path_597" data-name="Path 597" d="M72.208,97.205A16.7,16.7,0,0,1,88.9,80.834,17.016,17.016,0,0,1,99.4,84.381a2.692,2.692,0,0,1,.454,3.639,2.664,2.664,0,0,1-3.638.5,11.336,11.336,0,0,0-7.322-2.5,12.035,12.035,0,0,0-8.186,3.273,11.218,11.218,0,0,0-3.321,7.913,11.061,11.061,0,0,0,3.321,7.915,12.036,12.036,0,0,0,8.186,3.274,11.425,11.425,0,0,0,7.322-2.5,2.758,2.758,0,0,1,3.638.5,2.685,2.685,0,0,1-.454,3.638A17.016,17.016,0,0,1,88.9,113.578,16.635,16.635,0,0,1,72.208,97.205Z" transform="translate(-72.208 -80.834)" fill="#ebebeb"/>
      <path id="Path_598" data-name="Path 598" d="M98.384,105.665a2.371,2.371,0,0,1,3.319-.317c2,1.637,5.458,3.547,8.685,3.5a9.8,9.8,0,0,0,5.685-1.682,4.091,4.091,0,0,0,1.956-3.274,2.585,2.585,0,0,0-.41-1.455,4.265,4.265,0,0,0-1.363-1.365,18.21,18.21,0,0,0-6.23-2.138h-.093a24.565,24.565,0,0,1-5.866-1.773,9.786,9.786,0,0,1-4.229-3.547,6.971,6.971,0,0,1-1.046-3.729,8.4,8.4,0,0,1,3.638-6.64,13.439,13.439,0,0,1,7.868-2.411c4.365,0,7.594,2.138,9.914,3.638a2.344,2.344,0,0,1,.637,3.229,2.3,2.3,0,0,1-3.231.682c-2.318-1.546-4.548-2.911-7.321-2.911a8.691,8.691,0,0,0-5.1,1.546,3.624,3.624,0,0,0-1.727,2.866,2.2,2.2,0,0,0,.319,1.272,4.38,4.38,0,0,0,1.229,1.184,15.655,15.655,0,0,0,5.684,2h.09a26.79,26.79,0,0,1,6.277,1.91,10.618,10.618,0,0,1,4.546,3.775,7.359,7.359,0,0,1,1.094,3.865,8.8,8.8,0,0,1-3.912,7.05,14.228,14.228,0,0,1-8.414,2.592c-4.911-.046-9.049-2.5-11.642-4.548A2.421,2.421,0,0,1,98.384,105.665Z" transform="translate(-62.912 -80.834)" fill="#ebebeb"/>
      <path id="Path_599" data-name="Path 599" d="M120.321,105.665a2.371,2.371,0,0,1,3.319-.317c2,1.637,5.458,3.547,8.685,3.5a9.8,9.8,0,0,0,5.685-1.682,4.091,4.091,0,0,0,1.956-3.274,2.585,2.585,0,0,0-.41-1.455,4.265,4.265,0,0,0-1.363-1.365,18.21,18.21,0,0,0-6.23-2.138h-.093A24.565,24.565,0,0,1,126,97.16a9.786,9.786,0,0,1-4.229-3.547,6.971,6.971,0,0,1-1.046-3.729,8.4,8.4,0,0,1,3.638-6.64,13.439,13.439,0,0,1,7.868-2.411c4.365,0,7.594,2.138,9.914,3.638a2.344,2.344,0,0,1,.637,3.229,2.3,2.3,0,0,1-3.231.682c-2.318-1.546-4.548-2.911-7.321-2.911a8.691,8.691,0,0,0-5.1,1.546,3.624,3.624,0,0,0-1.727,2.866,2.2,2.2,0,0,0,.319,1.272,4.361,4.361,0,0,0,1.229,1.184,15.655,15.655,0,0,0,5.684,2h.09a26.79,26.79,0,0,1,6.277,1.91,10.618,10.618,0,0,1,4.546,3.775,7.359,7.359,0,0,1,1.094,3.865,8.8,8.8,0,0,1-3.912,7.05,14.228,14.228,0,0,1-8.414,2.592c-4.911-.046-9.049-2.5-11.642-4.548A2.419,2.419,0,0,1,120.321,105.665Z" transform="translate(-54.971 -80.834)" fill="#ebebeb"/>
    </g>
    <g id="Group_368" data-name="Group 368" transform="translate(282.95 303.575)">
      <g id="Group_366" data-name="Group 366">
        <rect id="Rectangle_127" data-name="Rectangle 127" width="135.356" height="86.344" transform="translate(0.855 0.855)" fill="#fff"/>
        <path id="Path_600" data-name="Path 600" d="M355.641,325.969H218.575V237.915H355.641Zm-135.355-1.712H353.93V239.626H220.286Z" transform="translate(-218.575 -237.915)" fill="#ebebeb"/>
      </g>
      <g id="Group_367" data-name="Group 367">
        <rect id="Rectangle_128" data-name="Rectangle 128" width="135.356" height="16.329" transform="translate(0.855 0.855)" fill="#ffee93"/>
        <path id="Path_601" data-name="Path 601" d="M355.641,255.953H218.575V237.915H355.641Zm-135.355-1.711H353.93V239.626H220.286Z" transform="translate(-218.575 -237.915)" fill="#ffee93"/>
      </g>
    </g>
    <g id="Group_369" data-name="Group 369" transform="translate(290.914 308.603)">
      <path id="Path_602" data-name="Path 602" d="M232.642,245.716a4.11,4.11,0,1,1-4.111-4.109A4.109,4.109,0,0,1,232.642,245.716Z" transform="translate(-224.422 -241.607)" fill="#a6a6a6"/>
      <path id="Path_603" data-name="Path 603" d="M244.963,245.716a4.11,4.11,0,1,1-4.111-4.109A4.109,4.109,0,0,1,244.963,245.716Z" transform="translate(-219.962 -241.607)" fill="#ebebeb"/>
      <path id="Path_604" data-name="Path 604" d="M257.284,245.716a4.11,4.11,0,1,1-4.109-4.109A4.109,4.109,0,0,1,257.284,245.716Z" transform="translate(-215.502 -241.607)" fill="#fff"/>
    </g>
    <g id="Group_372" data-name="Group 372" transform="translate(129.436 137.672)">
      <g id="Group_370" data-name="Group 370" transform="translate(0 0)">
        <rect id="Rectangle_129" data-name="Rectangle 129" width="225.736" height="185.386" transform="translate(0.855 0.856)" fill="#fff"/>
        <path id="Path_605" data-name="Path 605" d="M333.309,303.2H105.862v-187.1H333.309Zm-225.736-1.712H331.6V117.818H107.573Z" transform="translate(-105.862 -116.106)" fill="#ebebeb"/>
      </g>
      <g id="Group_371" data-name="Group 371" transform="translate(0 0)">
        <rect id="Rectangle_130" data-name="Rectangle 130" width="225.736" height="16.329" transform="translate(0.855 0.856)" fill="#ffee93"/>
        <path id="Path_606" data-name="Path 606" d="M333.309,134.146H105.862v-18.04H333.309Zm-225.736-1.711H331.6V117.818H107.573Z" transform="translate(-105.862 -116.106)" fill="#ffee93"/>
      </g>
    </g>
    <g id="Group_373" data-name="Group 373" transform="translate(137.399 142.7)">
      <path id="Path_607" data-name="Path 607" d="M119.929,123.909a4.11,4.11,0,1,1-4.111-4.111A4.11,4.11,0,0,1,119.929,123.909Z" transform="translate(-111.709 -119.798)" fill="#ffc727"/>
      <path id="Path_608" data-name="Path 608" d="M132.25,123.909a4.11,4.11,0,1,1-4.111-4.111A4.11,4.11,0,0,1,132.25,123.909Z" transform="translate(-107.249 -119.798)" fill="#ebebeb"/>
      <path id="Path_609" data-name="Path 609" d="M144.571,123.909a4.11,4.11,0,1,1-4.109-4.111A4.11,4.11,0,0,1,144.571,123.909Z" transform="translate(-102.789 -119.798)" fill="#fff"/>
    </g>
    <g id="Group_375" data-name="Group 375" transform="translate(147.808 171.919)">
      <rect id="Rectangle_131" data-name="Rectangle 131" width="8.73" height="3.189" transform="translate(0 15.42)" fill="#ebebeb"/>
      <rect id="Rectangle_132" data-name="Rectangle 132" width="100.141" height="3.189" transform="translate(15.093 15.42)" fill="#ebebeb"/>
      <rect id="Rectangle_133" data-name="Rectangle 133" width="16.582" height="3.189" transform="translate(120.598 15.42)" fill="#ffee93"/>
      <rect id="Rectangle_134" data-name="Rectangle 134" width="16.582" height="3.189" transform="translate(158.526 58.092)" fill="#ebebeb"/>
      <rect id="Rectangle_135" data-name="Rectangle 135" width="28.666" height="3.189" transform="translate(140.785 15.42)" fill="#a6a6a6"/>
      <rect id="Rectangle_136" data-name="Rectangle 136" width="8.73" height="3.189" transform="translate(8.73 23.955)" fill="#ebebeb"/>
      <rect id="Rectangle_137" data-name="Rectangle 137" width="65.719" height="3.189" transform="translate(23.604 23.955)" fill="#a6a6a6"/>
      <rect id="Rectangle_138" data-name="Rectangle 138" width="38.479" height="3.189" transform="translate(116.108 58.092)" fill="#a6a6a6"/>
      <rect id="Rectangle_139" data-name="Rectangle 139" width="62.772" height="3.189" transform="translate(15.093 49.558)" fill="#a6a6a6"/>
      <rect id="Rectangle_140" data-name="Rectangle 140" width="44.036" height="3.189" transform="translate(23.604 32.489)" fill="#ffee93"/>
      <rect id="Rectangle_141" data-name="Rectangle 141" width="16.797" height="3.189" transform="translate(131.687 41.024)" fill="#a6a6a6"/>
      <rect id="Rectangle_142" data-name="Rectangle 142" width="70.323" height="3.189" transform="translate(72.526 32.489)" fill="#a6a6a6"/>
      <rect id="Rectangle_143" data-name="Rectangle 143" width="83.943" height="3.189" transform="translate(15.093 58.092)" fill="#ffee93"/>
      <rect id="Rectangle_144" data-name="Rectangle 144" width="45.492" height="3.189" transform="translate(138.936 23.955)" fill="#ffee93"/>
      <rect id="Rectangle_145" data-name="Rectangle 145" width="41.883" height="3.189" transform="translate(93.448 23.955)" fill="#ebebeb"/>
      <rect id="Rectangle_146" data-name="Rectangle 146" width="28.263" height="3.189" transform="translate(146.154 32.489)" fill="#ebebeb"/>
      <rect id="Rectangle_147" data-name="Rectangle 147" width="8.73" height="3.189" transform="translate(8.73 32.489)" fill="#ebebeb"/>
      <rect id="Rectangle_148" data-name="Rectangle 148" width="8.73" height="3.189" transform="translate(0 41.024)" fill="#a6a6a6"/>
      <rect id="Rectangle_149" data-name="Rectangle 149" width="51.595" height="3.189" transform="translate(15.093 41.024)" fill="#ebebeb"/>
      <rect id="Rectangle_150" data-name="Rectangle 150" width="51.595" height="3.189" transform="translate(23.604 66.627)" fill="#ebebeb"/>
      <rect id="Rectangle_151" data-name="Rectangle 151" width="39.225" height="3.189" transform="translate(119.809 75.161)" fill="#ffee93"/>
      <rect id="Rectangle_152" data-name="Rectangle 152" width="51.74" height="3.189" transform="translate(79.386 66.627)" fill="#ffee93"/>
      <rect id="Rectangle_153" data-name="Rectangle 153" width="45.038" height="3.189" transform="translate(70.26 75.161)" fill="#ebebeb"/>
      <rect id="Rectangle_154" data-name="Rectangle 154" width="14.939" height="3.189" transform="translate(23.604 75.161)" fill="#a6a6a6"/>
      <rect id="Rectangle_155" data-name="Rectangle 155" width="55.764" height="3.189" transform="translate(81.416 49.558)" fill="#ebebeb"/>
      <rect id="Rectangle_156" data-name="Rectangle 156" width="35.481" height="3.189" transform="translate(140.785 49.558)" fill="#ffee93"/>
      <rect id="Rectangle_157" data-name="Rectangle 157" width="55.697" height="3.189" transform="translate(71.932 41.024)" fill="#ffee93"/>
      <rect id="Rectangle_158" data-name="Rectangle 158" width="8.73" height="3.189" transform="translate(0 49.558)" fill="#ebebeb"/>
      <rect id="Rectangle_159" data-name="Rectangle 159" width="8.73" height="3.189" transform="translate(0 58.092)" fill="#ebebeb"/>
      <rect id="Rectangle_160" data-name="Rectangle 160" width="8.73" height="3.189" transform="translate(8.73 66.627)" fill="#a6a6a6"/>
      <rect id="Rectangle_161" data-name="Rectangle 161" width="8.73" height="3.189" transform="translate(8.73 75.161)" fill="#ebebeb"/>
      <rect id="Rectangle_162" data-name="Rectangle 162" width="8.73" height="3.189" transform="translate(0 82.309)" fill="#ebebeb"/>
      <rect id="Rectangle_163" data-name="Rectangle 163" width="100.141" height="3.189" transform="translate(15.093 82.309)" fill="#ebebeb"/>
      <rect id="Rectangle_164" data-name="Rectangle 164" width="8.73" height="3.189" transform="translate(8.73 90.843)" fill="#ebebeb"/>
      <rect id="Rectangle_165" data-name="Rectangle 165" width="65.719" height="3.189" transform="translate(23.604 90.843)" fill="#a6a6a6"/>
      <rect id="Rectangle_166" data-name="Rectangle 166" width="62.772" height="3.189" transform="translate(15.093 116.446)" fill="#a6a6a6"/>
      <rect id="Rectangle_167" data-name="Rectangle 167" width="44.036" height="3.189" transform="translate(23.604 99.377)" fill="#ffee93"/>
      <rect id="Rectangle_168" data-name="Rectangle 168" width="70.323" height="3.189" transform="translate(72.526 99.377)" fill="#a6a6a6"/>
      <rect id="Rectangle_169" data-name="Rectangle 169" width="83.943" height="3.189" transform="translate(15.093 124.981)" fill="#ffee93"/>
      <rect id="Rectangle_170" data-name="Rectangle 170" width="45.492" height="3.189" transform="translate(138.936 90.843)" fill="#ffee93"/>
      <rect id="Rectangle_171" data-name="Rectangle 171" width="41.883" height="3.189" transform="translate(93.448 90.843)" fill="#ebebeb"/>
      <rect id="Rectangle_172" data-name="Rectangle 172" width="28.263" height="3.189" transform="translate(146.154 99.377)" fill="#ebebeb"/>
      <rect id="Rectangle_173" data-name="Rectangle 173" width="8.73" height="3.189" transform="translate(8.73 99.377)" fill="#ebebeb"/>
      <rect id="Rectangle_174" data-name="Rectangle 174" width="8.73" height="3.189" transform="translate(0 107.912)" fill="#a6a6a6"/>
      <rect id="Rectangle_175" data-name="Rectangle 175" width="51.595" height="3.189" transform="translate(15.093 107.912)" fill="#ebebeb"/>
      <rect id="Rectangle_176" data-name="Rectangle 176" width="55.764" height="3.189" transform="translate(81.416 116.446)" fill="#ebebeb"/>
      <rect id="Rectangle_177" data-name="Rectangle 177" width="55.697" height="3.189" transform="translate(71.932 107.912)" fill="#ffee93"/>
      <rect id="Rectangle_178" data-name="Rectangle 178" width="8.73" height="3.189" transform="translate(0 116.446)" fill="#ebebeb"/>
      <g id="Group_374" data-name="Group 374" transform="translate(0.719)">
        <path id="Path_610" data-name="Path 610" d="M124.552,148.274a.755.755,0,0,1-.526,1.294.8.8,0,0,1-.552-.215l-3.367-3.416c-.037-.012-.048-.035-.06-.072a.15.15,0,0,0-.037-.023.363.363,0,0,1-.035-.1.064.064,0,0,1-.037-.048c-.011-.025-.011-.06-.023-.072,0-.035-.025-.048-.025-.06v-.083c0-.025-.012-.035-.012-.072,0-.012.012-.049.012-.06v-.083c0-.025.025-.037.025-.049.012-.035.012-.06.023-.1,0-.011.012-.011.012-.023a1.053,1.053,0,0,1,.06-.108.024.024,0,0,1,.025-.025.219.219,0,0,1,.072-.083l3.367-3.416a.781.781,0,0,1,1.077,0,.757.757,0,0,1,0,1.079l-2.838,2.864Z" transform="translate(-119.879 -141.251)" fill="#ffc727"/>
        <path id="Path_611" data-name="Path 611" d="M125.566,148.651l2.935-6.986a.664.664,0,0,1,.874-.347.644.644,0,0,1,.335.85l-2.935,7a.667.667,0,0,1-.612.395.58.58,0,0,1-.24-.048A.647.647,0,0,1,125.566,148.651Z" transform="translate(-117.84 -141.246)" fill="#ffc727"/>
        <path id="Path_612" data-name="Path 612" d="M134.119,145.841a.011.011,0,0,1-.012.011.546.546,0,0,1-.084.084l-3.367,3.416a.782.782,0,0,1-1.077,0,.757.757,0,0,1,0-1.079l2.838-2.864-2.838-2.864a.757.757,0,0,1,0-1.079.781.781,0,0,1,1.077,0l3.367,3.416a.544.544,0,0,1,.084.083c.012,0,.012.025.012.025.023.048.046.072.06.108,0,.012.012.012.012.023a.454.454,0,0,0,.035.109c0,.012.011.012.011.037v.083c0,.011.014.048.014.06s-.014.048-.014.06v.1c0,.012-.011.012-.011.025a.727.727,0,0,0-.035.108c0,.012-.012.012-.012.035S134.142,145.793,134.119,145.841Z" transform="translate(-116.45 -141.251)" fill="#ffc727"/>
      </g>
    </g>
    <rect id="Rectangle_179" data-name="Rectangle 179" width="92.211" height="34.139" transform="translate(289.559 112.529)" fill="#76c8fe"/>
    <g id="Group_376" data-name="Group 376" transform="translate(302.865 120.129)">
      <path id="Path_613" data-name="Path 613" d="M233.2,119.778V104.637a1.391,1.391,0,0,1,1.411-1.411,1.413,1.413,0,0,1,1.437,1.411V110.8h6.647v-6.159a1.392,1.392,0,0,1,1.412-1.411,1.413,1.413,0,0,1,1.437,1.411v15.141a1.414,1.414,0,0,1-1.437,1.412,1.393,1.393,0,0,1-1.412-1.412v-6.159h-6.647v6.159a1.414,1.414,0,0,1-1.437,1.412A1.392,1.392,0,0,1,233.2,119.778Z" transform="translate(-233.197 -103.226)" fill="#fff"/>
      <path id="Path_614" data-name="Path 614" d="M257.909,106.075h-4.081v13.7a1.411,1.411,0,1,1-2.822,0v-13.7h-4.055a1.431,1.431,0,0,1-1.412-1.438,1.392,1.392,0,0,1,1.412-1.411h10.957a1.407,1.407,0,0,1,1.411,1.411A1.447,1.447,0,0,1,257.909,106.075Z" transform="translate(-228.729 -103.226)" fill="#fff"/>
      <path id="Path_615" data-name="Path 615" d="M274.216,104.637v15.141a1.448,1.448,0,0,1-1.437,1.412,1.408,1.408,0,0,1-1.412-1.412v-10.8l-3.7,5.132a1.4,1.4,0,0,1-1.155.59h-.052a1.447,1.447,0,0,1-1.179-.59l-3.671-5.132v10.8a1.425,1.425,0,0,1-2.849,0V104.637a1.424,1.424,0,0,1,1.412-1.411h.076a1.39,1.39,0,0,1,1.129.59l5.109,7.084,5.106-7.084a1.4,1.4,0,0,1,1.154-.59h.027A1.465,1.465,0,0,1,274.216,104.637Z" transform="translate(-223.941 -103.226)" fill="#fff"/>
      <path id="Path_616" data-name="Path 616" d="M274.67,119.778V104.637a1.407,1.407,0,0,1,1.411-1.411,1.429,1.429,0,0,1,1.437,1.411v13.7h6.956a1.425,1.425,0,0,1,0,2.849h-8.393A1.408,1.408,0,0,1,274.67,119.778Z" transform="translate(-218.184 -103.226)" fill="#fff"/>
    </g>
    <rect id="Rectangle_180" data-name="Rectangle 180" width="75.99" height="34.139" transform="translate(59.381 242.966)" fill="#76c8fe"/>
    <g id="Group_377" data-name="Group 377" transform="translate(75.983 250.566)">
      <path id="Path_617" data-name="Path 617" d="M72.621,209.979H69.467v5.568a1.425,1.425,0,0,1-2.851,0V200.406a1.408,1.408,0,0,1,1.414-1.411h4.591a5.492,5.492,0,1,1,0,10.984Zm-3.154-2.849h3.154a2.643,2.643,0,1,0,0-5.286H69.467Z" transform="translate(-66.616 -198.995)" fill="#fff"/>
      <path id="Path_618" data-name="Path 618" d="M77.6,215.547V200.406a1.391,1.391,0,0,1,1.411-1.411,1.414,1.414,0,0,1,1.437,1.411v6.16H87.1v-6.16a1.393,1.393,0,0,1,1.414-1.411,1.414,1.414,0,0,1,1.437,1.411v15.141a1.414,1.414,0,0,1-1.437,1.412,1.393,1.393,0,0,1-1.414-1.412v-6.159H80.451v6.159a1.414,1.414,0,0,1-1.437,1.412A1.391,1.391,0,0,1,77.6,215.547Z" transform="translate(-62.639 -198.995)" fill="#fff"/>
      <path id="Path_619" data-name="Path 619" d="M96.968,209.979H93.81v5.568a1.423,1.423,0,0,1-2.847,0V200.406a1.407,1.407,0,0,1,1.41-1.411h4.6a5.492,5.492,0,1,1,0,10.984ZM93.81,207.13h3.158a2.643,2.643,0,1,0,0-5.286H93.81Z" transform="translate(-57.802 -198.995)" fill="#fff"/>
    </g>
    <path id="Path_620" data-name="Path 620" d="M278.733,199.636l5.766,13.923-5.758,2.383-5.8-14.017-9.516,7.383V170.087l27.455,27.737Z" transform="translate(80.612 41.106)" fill="#263238"/>
    <g id="Group_378" data-name="Group 378" transform="translate(335.292 202.974)">
      <path id="Path_621" data-name="Path 621" d="M263.521,167.995a5.181,5.181,0,0,1-.349-1.972,5.127,5.127,0,0,1,.349-1.971,5.153,5.153,0,0,1,.349,1.971A5.208,5.208,0,0,1,263.521,167.995Z" transform="translate(-254.773 -164.052)" fill="#263238"/>
      <path id="Path_622" data-name="Path 622" d="M261.675,168.721a5.759,5.759,0,0,1-2.789-2.788,5.157,5.157,0,0,1,1.641,1.148A5.209,5.209,0,0,1,261.675,168.721Z" transform="translate(-256.324 -163.371)" fill="#263238"/>
      <path id="Path_623" data-name="Path 623" d="M260.949,170.567a5.212,5.212,0,0,1-1.972.349,5.159,5.159,0,0,1-1.972-.349,5.16,5.16,0,0,1,1.972-.349A5.213,5.213,0,0,1,260.949,170.567Z" transform="translate(-257.005 -161.82)" fill="#263238"/>
      <path id="Path_624" data-name="Path 624" d="M261.675,172.968a5.231,5.231,0,0,1-1.148,1.641,5.153,5.153,0,0,1-1.641,1.147,5.759,5.759,0,0,1,2.789-2.788Z" transform="translate(-256.324 -160.824)" fill="#263238"/>
      <path id="Path_625" data-name="Path 625" d="M266.954,170.567a5.217,5.217,0,0,1,1.972-.349,5.159,5.159,0,0,1,1.972.349,5.159,5.159,0,0,1-1.972.349A5.217,5.217,0,0,1,266.954,170.567Z" transform="translate(-253.404 -161.82)" fill="#263238"/>
      <path id="Path_626" data-name="Path 626" d="M265.921,168.721a5.208,5.208,0,0,1,1.148-1.64,5.156,5.156,0,0,1,1.641-1.148,5.758,5.758,0,0,1-2.789,2.788Z" transform="translate(-253.777 -163.371)" fill="#263238"/>
    </g>
    <g id="Group_379" data-name="Group 379" transform="translate(308.796 339.349)">
      <path id="Path_627" data-name="Path 627" d="M237.551,265.109h5.317v16.069a2.554,2.554,0,0,0,.6,1.787,2.293,2.293,0,0,0,3.257-.042,2.854,2.854,0,0,0,.606-1.931V265.109h5.283v14.975a12.473,12.473,0,0,1-.8,4.906,5.456,5.456,0,0,1-2.367,2.709,9.123,9.123,0,0,1-4.368.865q-4.137,0-5.829-2.121t-1.693-7.161Z" transform="translate(-237.551 -263.845)" fill="#ebebeb"/>
      <path id="Path_628" data-name="Path 628" d="M252.186,265.109h5.178v22.822h-5.178Z" transform="translate(-232.253 -263.845)" fill="#ebebeb"/>
      <path id="Path_629" data-name="Path 629" d="M272.959,264.181l-11.522,30.53H258.6l11.487-30.53Z" transform="translate(-229.932 -264.181)" fill="#ebebeb"/>
      <path id="Path_630" data-name="Path 630" d="M271.664,265.109h5.316v16.069a2.554,2.554,0,0,0,.6,1.787,2.291,2.291,0,0,0,3.255-.042,2.855,2.855,0,0,0,.609-1.931V265.109h5.282v14.975a12.472,12.472,0,0,1-.8,4.906,5.456,5.456,0,0,1-2.367,2.709,9.124,9.124,0,0,1-4.368.865q-4.139,0-5.831-2.121t-1.692-7.161Z" transform="translate(-225.202 -263.845)" fill="#ebebeb"/>
      <path id="Path_631" data-name="Path 631" d="M285.065,265.109h5.744q2.206,5.369,2.411,6.155h.068a14.612,14.612,0,0,1,.65-1.743l1.743-4.411h5.745L296.126,276l5.744,11.932h-5.744q-2.754-6.444-2.872-6.939h-.068a14.836,14.836,0,0,1-.768,2.17l-2.1,4.77h-5.659l5.624-11.864Z" transform="translate(-220.5 -263.845)" fill="#ebebeb"/>
    </g>
    <g id="Group_412" data-name="Group 412" transform="translate(194.832 240.655)">
      <g id="Group_384" data-name="Group 384" transform="translate(0 111.937)">
        <g id="Group_382" data-name="Group 382" transform="translate(0 1.243)">
          <path id="Path_632" data-name="Path 632" d="M380.88,296.075c-10.5,45.73-31.756,103.63-48.179,115.308-13.248,9.425-82.741,26.022-86.615,26.44-9.594.968-28.541-66.8-18.6-69.556,12.53-3.47,72.086-5.323,75.475-8.8,3.515-3.639,25.189-32.987,49.727-66.988C369.627,268.984,387.4,267.7,380.88,296.075Z" transform="translate(-128.245 -274.816)" fill="#dd6a57"/>
          <g id="Group_381" data-name="Group 381" transform="translate(0 93.451)">
            <path id="Path_633" data-name="Path 633" d="M279.419,409.264c-1.143.579-17.37,8.74-27.4,11.648-7.486,2.17-29.2,7.838-32.41-.166-2.194-5.456,10.184-10.293,18.861-13.907,4.569-1.905,10.2-6.69,8.856-9.628-2.355-5.137-14.123.022-21.86,4.519-14.963,8.695-34.9,24.344-44.037,16.753-3.451-2.87.56-8.1,6.43-13.22-9.524,5.972-19.684,10.87-23.643,7.834-2.275-1.728-2.379-4.1-1.114-6.813-2.941.956-5.539.77-7.351-1.147-3.1-3.239-1.587-8.021,1.8-12.924a3.691,3.691,0,0,1-2.813-1.847c-6.555-10,26.255-38.693,37.6-41.379,33.385-7.936,68.9-5.043,68.9-5.043C274.354,354.423,279.445,409.24,279.419,409.264Z" transform="translate(-153.877 -343.429)" fill="#dd6a57"/>
            <g id="Group_380" data-name="Group 380" transform="translate(3.396 8.545)">
              <path id="Path_634" data-name="Path 634" d="M221.572,369.2a56.662,56.662,0,0,0-22.269,8.571c-8.463,5.586-14.078,12.125-21.179,18.71-.187.173.076.469.263.3,3.385-3.131,17.4-14.9,21.028-17.572a53.963,53.963,0,0,1,22.187-9.869C221.689,369.32,221.659,369.188,221.572,369.2Z" transform="translate(-148.519 -342.646)" fill="#263238"/>
              <path id="Path_635" data-name="Path 635" d="M221.592,358.8c-8.774,2.4-17.765,4.824-25.909,8.974-8.912,4.542-15.886,11.946-22.745,19.072q-6.176,6.419-12.066,13.108c-.163.187.087.482.264.294q10.438-11.04,21.53-21.443a71.375,71.375,0,0,1,23.629-14.892c5.022-1.914,10.18-3.439,15.329-4.959C221.721,358.926,221.691,358.774,221.592,358.8Z" transform="translate(-154.76 -346.411)" fill="#263238"/>
              <path id="Path_636" data-name="Path 636" d="M213.828,349.7c-8.525,1.75-15.963,3.247-23.512,7.815-9.993,6.049-19.641,16.239-23.026,19.851-3.74,3.991-7.341,8.1-10.881,12.27-.144.169.147.424.3.256a283.043,283.043,0,0,1,26.007-25.755,56.28,56.28,0,0,1,14.541-9.456c5.3-2.285,10.99-3.579,16.586-4.924A.029.029,0,0,0,213.828,349.7Z" transform="translate(-156.37 -349.703)" fill="#263238"/>
            </g>
          </g>
        </g>
        <g id="Group_383" data-name="Group 383" transform="translate(175.233)">
          <path id="Path_637" data-name="Path 637" d="M282.536,353.13l64.055-2.719S358.222,318.673,362.5,290.5,342.774,272.435,319,302.78,282.536,353.13,282.536,353.13Z" transform="translate(-282.536 -273.904)" fill="#76c8fe"/>
          <path id="Path_638" data-name="Path 638" d="M297.926,329.656c.436-.121.872-.173,1.306-.263a2.609,2.609,0,0,1,3.168,2.54,2.043,2.043,0,0,0,.934,1.754,2.4,2.4,0,0,0,1.076.362c.436.089.872.142,1.306.264-.434.121-.87.174-1.306.264a2.553,2.553,0,0,1-1.456-.14,2.689,2.689,0,0,1-1.632-2.486,2.014,2.014,0,0,0-.992-1.7,2.555,2.555,0,0,0-1.1-.332C298.8,329.83,298.362,329.777,297.926,329.656Zm45.066-38.911a2.561,2.561,0,0,1,1.1.332,2.013,2.013,0,0,1,.992,1.7,2.688,2.688,0,0,0,1.632,2.486,2.552,2.552,0,0,0,1.456.14c.436-.09.87-.143,1.306-.264-.436-.123-.87-.176-1.306-.264a2.4,2.4,0,0,1-1.076-.362,2.043,2.043,0,0,1-.934-1.754,2.61,2.61,0,0,0-3.168-2.54c-.436.089-.87.142-1.306.263C342.121,290.6,342.556,290.656,342.992,290.745Zm1.625,24.954a2.547,2.547,0,0,1-1.012.542,2.013,2.013,0,0,1-1.9-.5,2.687,2.687,0,0,0-2.912-.6,2.559,2.559,0,0,0-1.128.93c-.245.37-.515.716-.737,1.11.395-.221.74-.492,1.11-.737a2.384,2.384,0,0,1,1.017-.5,2.043,2.043,0,0,1,1.9.579,2.608,2.608,0,0,0,4.036-.444c.245-.37.516-.715.738-1.109C345.333,315.185,344.988,315.454,344.617,315.7Zm-17.4-29.114a2.677,2.677,0,0,1-1.022.545,2.048,2.048,0,0,1-1.907-.5,3.558,3.558,0,0,0-.341-.3c-.259.259-.5.518-.749.79a1.718,1.718,0,0,1,.354.286,2.658,2.658,0,0,0,2.942.518,2.613,2.613,0,0,0,1.09-.967c.245-.368.518-.708.735-1.1C327.923,286.068,327.582,286.34,327.214,286.586Zm-7.244,23.987a2.561,2.561,0,0,1-.332,1.1,2.014,2.014,0,0,1-1.7.992,2.688,2.688,0,0,0-2.486,1.632,2.553,2.553,0,0,0-.14,1.456c.09.436.142.87.264,1.306.123-.436.174-.87.264-1.306a2.367,2.367,0,0,1,.362-1.076,2.043,2.043,0,0,1,1.754-.934,2.61,2.61,0,0,0,2.54-3.168c-.09-.436-.142-.87-.263-1.306C320.112,309.7,320.058,310.137,319.97,310.573Zm18.338,24.393a2.562,2.562,0,0,1-.332,1.1,2.017,2.017,0,0,1-1.7.992,2.686,2.686,0,0,0-2.486,1.632,2.552,2.552,0,0,0-.14,1.456c.09.435.142.87.264,1.306.123-.436.174-.872.264-1.306a2.367,2.367,0,0,1,.362-1.076,2.041,2.041,0,0,1,1.754-.934,2.608,2.608,0,0,0,2.539-3.168c-.089-.436-.14-.872-.263-1.306C338.448,334.095,338.4,334.53,338.308,334.966Z" transform="translate(-276.965 -269.579)" fill="#fff"/>
          <path id="Path_639" data-name="Path 639" d="M345.369,319.9c-13.853-.353-27.751.262-41.6,1.148q-5.878.378-11.735,1.03c-.109.012-.123.174-.005.174,6.922.031,13.842-.221,20.765-.433,6.941-.213,13.89-.482,20.825-.889,3.916-.23,7.829-.456,11.742-.767C345.528,320.145,345.542,319.9,345.369,319.9Z" transform="translate(-279.129 -257.291)" fill="#263238"/>
        </g>
      </g>
      <g id="Group_385" data-name="Group 385" transform="translate(193.201 102.197)">
        <path id="Path_640" data-name="Path 640" d="M295.729,458.084H459.218c1.8-3.3-24.993-146.511-80.129-186.835-12.233-8.947-33.934-3.193-39.971,5.507C308.778,320.477,295.729,458.084,295.729,458.084Z" transform="translate(-295.729 -266.753)" fill="#76c8fe"/>
        <path id="Path_641" data-name="Path 641" d="M364.825,335.3c.434-.121.87-.173,1.3-.263a2.609,2.609,0,0,1,3.168,2.54,2.049,2.049,0,0,0,.934,1.754,2.408,2.408,0,0,0,1.077.362c.434.089.87.142,1.3.264-.434.121-.87.174-1.3.264a2.551,2.551,0,0,1-1.456-.14,2.69,2.69,0,0,1-1.633-2.486,2.016,2.016,0,0,0-.99-1.7,2.567,2.567,0,0,0-1.1-.332C365.7,335.479,365.26,335.426,364.825,335.3Zm25.4,86.445a2.536,2.536,0,0,1,1.1.332,2.012,2.012,0,0,1,.991,1.7,2.69,2.69,0,0,0,1.633,2.486,2.559,2.559,0,0,0,1.455.14c.436-.09.872-.143,1.306-.266-.434-.121-.87-.174-1.306-.264a2.374,2.374,0,0,1-1.076-.362,2.041,2.041,0,0,1-.933-1.754,2.611,2.611,0,0,0-3.169-2.539c-.434.089-.87.142-1.306.263C389.353,421.607,389.789,421.659,390.224,421.749Zm29.99-81.524a2.524,2.524,0,0,1,1.1.332,2.014,2.014,0,0,1,.992,1.7,2.685,2.685,0,0,0,1.632,2.484,2.552,2.552,0,0,0,1.456.14c.434-.09.87-.142,1.306-.264-.436-.123-.872-.174-1.306-.264a2.367,2.367,0,0,1-1.076-.362,2.041,2.041,0,0,1-.934-1.754,2.608,2.608,0,0,0-3.168-2.539c-.436.089-.872.142-1.306.263C419.342,340.084,419.778,340.135,420.214,340.225Zm-76.669-43.832a2.561,2.561,0,0,1,1.1.332,2.013,2.013,0,0,1,.992,1.7,2.688,2.688,0,0,0,1.632,2.486,2.553,2.553,0,0,0,1.456.14c.436-.09.87-.143,1.306-.264-.436-.123-.87-.176-1.306-.264a2.4,2.4,0,0,1-1.076-.362,2.043,2.043,0,0,1-.934-1.754,2.61,2.61,0,0,0-3.168-2.54c-.436.089-.87.142-1.306.263C342.674,296.252,343.108,296.305,343.544,296.394Zm47.192-.987a2.525,2.525,0,0,1,1.1.332,2.01,2.01,0,0,1,.992,1.7,2.689,2.689,0,0,0,1.632,2.487,2.564,2.564,0,0,0,1.456.139c.436-.089.87-.142,1.306-.264-.436-.123-.87-.174-1.306-.264a2.369,2.369,0,0,1-1.076-.362,2.04,2.04,0,0,1-.934-1.754,2.61,2.61,0,0,0-3.168-2.539c-.436.089-.87.142-1.306.263C389.866,295.264,390.3,295.316,390.736,295.406Zm-58.776,76.22a2.562,2.562,0,0,1,1.1.332,2.017,2.017,0,0,1,.992,1.7,2.687,2.687,0,0,0,1.632,2.486,2.553,2.553,0,0,0,1.456.14c.436-.09.87-.143,1.306-.264-.436-.123-.87-.176-1.306-.264a2.4,2.4,0,0,1-1.076-.362,2.043,2.043,0,0,1-.934-1.754,2.61,2.61,0,0,0-3.168-2.54c-.436.089-.87.142-1.306.263C331.09,371.485,331.524,371.538,331.96,371.626Zm51.463,78.964a2.537,2.537,0,0,1,1.1.332,2.014,2.014,0,0,1,.993,1.7,2.687,2.687,0,0,0,1.632,2.486,2.55,2.55,0,0,0,1.456.139c.434-.089.87-.142,1.3-.263-.434-.123-.87-.176-1.3-.266a2.373,2.373,0,0,1-1.077-.362,2.041,2.041,0,0,1-.933-1.753,2.611,2.611,0,0,0-3.169-2.54c-.435.089-.87.142-1.3.263C382.553,450.449,382.989,450.5,383.423,450.591Zm-25.339-42.43a2.562,2.562,0,0,1,1.1.332,2.017,2.017,0,0,1,.992,1.7,2.686,2.686,0,0,0,1.632,2.486,2.553,2.553,0,0,0,1.456.14c.436-.09.87-.142,1.306-.264-.436-.123-.87-.176-1.306-.264a2.4,2.4,0,0,1-1.077-.362,2.045,2.045,0,0,1-.933-1.754,2.61,2.61,0,0,0-3.168-2.54c-.436.09-.872.142-1.306.263C357.213,408.02,357.649,408.072,358.085,408.16Zm-58.021,43.5a2.4,2.4,0,0,1-1.076-.368,1.993,1.993,0,0,1-.926-1.757,2.652,2.652,0,0,0-1.553-2.356c-.041.354-.082.681-.109,1.008a1.883,1.883,0,0,1,.572,1.376,2.7,2.7,0,0,0,1.634,2.479,2.486,2.486,0,0,0,1.457.15c.436-.1.872-.15,1.308-.272C300.935,451.792,300.5,451.737,300.064,451.656Zm11.145-35.785a2.536,2.536,0,0,1,1.1.332,2.013,2.013,0,0,1,.992,1.7,2.69,2.69,0,0,0,1.633,2.486,2.538,2.538,0,0,0,1.456.139c.434-.089.87-.142,1.3-.264-.434-.121-.87-.174-1.3-.263a2.39,2.39,0,0,1-1.077-.364,2.041,2.041,0,0,1-.933-1.753,2.611,2.611,0,0,0-3.169-2.54c-.434.089-.87.142-1.306.263C310.339,415.729,310.774,415.782,311.209,415.871Zm68.454-43.205a2.56,2.56,0,0,1,1.1.332,2.016,2.016,0,0,1,.992,1.7,2.687,2.687,0,0,0,1.632,2.486,2.553,2.553,0,0,0,1.456.14c.436-.09.87-.143,1.306-.264-.436-.123-.87-.176-1.306-.264a2.384,2.384,0,0,1-1.076-.364,2.039,2.039,0,0,1-.934-1.753,2.61,2.61,0,0,0-3.168-2.54c-.436.089-.872.142-1.306.263C378.791,372.524,379.227,372.577,379.663,372.665Zm59.945,58.095a2.555,2.555,0,0,1,1.1.332,2.014,2.014,0,0,1,.992,1.7,2.69,2.69,0,0,0,1.633,2.486,2.548,2.548,0,0,0,1.455.14c.436-.09.872-.143,1.306-.264-.434-.123-.87-.176-1.306-.264a2.391,2.391,0,0,1-1.076-.364,2.042,2.042,0,0,1-.934-1.753,2.609,2.609,0,0,0-3.168-2.54c-.434.09-.87.142-1.306.263C438.738,430.618,439.174,430.671,439.608,430.76Zm-23.8-35.464a2.56,2.56,0,0,1,1.1.332,2.013,2.013,0,0,1,.99,1.7,2.69,2.69,0,0,0,1.633,2.486,2.55,2.55,0,0,0,1.456.139c.434-.089.87-.142,1.306-.263-.436-.123-.872-.176-1.306-.264a2.4,2.4,0,0,1-1.077-.364,2.041,2.041,0,0,1-.933-1.753,2.611,2.611,0,0,0-3.169-2.54c-.434.089-.87.142-1.3.263C414.941,395.155,415.377,395.208,415.812,395.3Zm-70.643-73.948a2.547,2.547,0,0,1-1.012.542,2.013,2.013,0,0,1-1.9-.5,2.687,2.687,0,0,0-2.912-.6,2.559,2.559,0,0,0-1.128.93c-.245.37-.515.716-.737,1.11.395-.221.74-.492,1.11-.737a2.384,2.384,0,0,1,1.017-.5,2.043,2.043,0,0,1,1.9.579,2.608,2.608,0,0,0,4.036-.444c.245-.37.516-.715.738-1.109C345.885,320.833,345.541,321.1,345.169,321.348Zm70.44,50.684a2.551,2.551,0,0,1-1.012.543,2.017,2.017,0,0,1-1.9-.5,2.687,2.687,0,0,0-2.912-.6,2.563,2.563,0,0,0-1.129.93c-.244.372-.515.716-.735,1.111.394-.222.738-.493,1.11-.737a2.379,2.379,0,0,1,1.017-.505,2.041,2.041,0,0,1,1.9.58,2.61,2.61,0,0,0,4.037-.445c.245-.37.515-.715.737-1.109C416.324,371.517,415.979,371.787,415.609,372.032ZM371.65,277.666a2.548,2.548,0,0,1-1.012.542,2.013,2.013,0,0,1-1.9-.5,2.685,2.685,0,0,0-2.911-.6,2.547,2.547,0,0,0-1.129.93c-.245.37-.515.716-.737,1.11.395-.221.74-.492,1.11-.737a2.383,2.383,0,0,1,1.017-.5,2.041,2.041,0,0,1,1.9.579,2.607,2.607,0,0,0,4.036-.444c.245-.37.516-.715.738-1.11C372.367,277.15,372.022,277.421,371.65,277.666Zm-.865,27.951a2.526,2.526,0,0,1-.332,1.1,2.015,2.015,0,0,1-1.7.992,2.688,2.688,0,0,0-2.486,1.632,2.563,2.563,0,0,0-.139,1.456c.089.434.142.87.264,1.306.123-.436.174-.872.264-1.306a2.368,2.368,0,0,1,.362-1.076,2.04,2.04,0,0,1,1.754-.934,2.61,2.61,0,0,0,2.539-3.168c-.089-.436-.142-.872-.263-1.306C370.927,304.745,370.875,305.181,370.785,305.617ZM360.411,382.2a2.561,2.561,0,0,1-.332,1.1,2.014,2.014,0,0,1-1.7.992,2.686,2.686,0,0,0-2.486,1.632,2.553,2.553,0,0,0-.14,1.456c.09.436.142.87.264,1.306.123-.436.176-.87.264-1.306a2.4,2.4,0,0,1,.362-1.076,2.043,2.043,0,0,1,1.754-.934,2.61,2.61,0,0,0,2.54-3.168c-.09-.436-.142-.87-.263-1.306C360.551,381.33,360.5,381.765,360.411,382.2Zm54.346-66.717a1.1,1.1,0,0,1-.218.014,2.683,2.683,0,0,0-2.492,1.634,2.581,2.581,0,0,0-.136,1.457c.082.436.136.872.259,1.308.123-.436.177-.872.272-1.308a2.341,2.341,0,0,1,.354-1.076,2.069,2.069,0,0,1,1.757-.94,2.094,2.094,0,0,0,.708-.123C415.1,316.123,414.921,315.81,414.757,315.483Zm-.375,123.7a2.568,2.568,0,0,1-.332,1.1,2.017,2.017,0,0,1-1.7.992,2.686,2.686,0,0,0-2.486,1.632,2.553,2.553,0,0,0-.14,1.456c.09.434.143.87.264,1.306.123-.436.176-.872.264-1.306a2.411,2.411,0,0,1,.362-1.077,2.045,2.045,0,0,1,1.754-.933,2.611,2.611,0,0,0,2.54-3.169c-.09-.435-.142-.87-.263-1.3C414.523,438.314,414.471,438.749,414.383,439.184Zm23.379-69.425a.407.407,0,0,1-.054.109,1.984,1.984,0,0,1-1.7.994,2.7,2.7,0,0,0-2.479,1.634,2.486,2.486,0,0,0-.15,1.457c.1.436.15.872.272,1.307.123-.436.177-.872.259-1.307a2.4,2.4,0,0,1,.368-1.076,2.035,2.035,0,0,1,1.757-.94,2.691,2.691,0,0,0,2.1-1.076v-.014C438.007,370.494,437.884,370.127,437.762,369.759ZM318.193,384.941a2.56,2.56,0,0,1-.332,1.1,2.017,2.017,0,0,1-1.7.992,2.687,2.687,0,0,0-2.486,1.632,2.552,2.552,0,0,0-.14,1.456c.09.434.143.87.264,1.306.123-.436.176-.872.264-1.306a2.4,2.4,0,0,1,.362-1.076,2.043,2.043,0,0,1,1.754-.934,2.61,2.61,0,0,0,2.54-3.168c-.089-.436-.142-.872-.263-1.306C318.335,384.069,318.282,384.505,318.193,384.941Zm2.872-68.627c-.232.763-.463,1.512-.695,2.274a2.5,2.5,0,0,0,.586-.913A2.775,2.775,0,0,0,321.066,316.314Zm24.524-44.762a2.543,2.543,0,0,1-.334,1.1,2.01,2.01,0,0,1-1.7.992,2.686,2.686,0,0,0-2.486,1.632,2.553,2.553,0,0,0-.14,1.456c.09.436.142.87.264,1.306.123-.436.174-.87.264-1.306a2.367,2.367,0,0,1,.362-1.076,2.04,2.04,0,0,1,1.754-.934,2.61,2.61,0,0,0,2.539-3.168c-.089-.436-.14-.87-.263-1.306C345.73,270.682,345.678,271.116,345.59,271.552Zm-6.73,69.063a2.562,2.562,0,0,1-.332,1.1,2.017,2.017,0,0,1-1.7.992,2.686,2.686,0,0,0-2.486,1.632,2.553,2.553,0,0,0-.14,1.456c.09.435.142.87.264,1.306.123-.436.174-.872.264-1.306a2.367,2.367,0,0,1,.362-1.076,2.041,2.041,0,0,1,1.754-.934,2.608,2.608,0,0,0,2.539-3.168c-.089-.436-.14-.872-.263-1.306C339,339.743,338.949,340.179,338.86,340.615Zm60.426,9.283a2.561,2.561,0,0,1-.332,1.1,2.017,2.017,0,0,1-1.7.992,2.687,2.687,0,0,0-2.486,1.632,2.554,2.554,0,0,0-.14,1.456c.09.436.142.87.264,1.306.123-.436.174-.87.264-1.306a2.384,2.384,0,0,1,.362-1.076,2.041,2.041,0,0,1,1.754-.934,2.608,2.608,0,0,0,2.539-3.168c-.089-.436-.14-.872-.261-1.306C399.427,349.027,399.375,349.462,399.287,349.9Zm-55.849,77.551a2.555,2.555,0,0,1-.332,1.1,2.014,2.014,0,0,1-1.7.992,2.691,2.691,0,0,0-2.486,1.632,2.553,2.553,0,0,0-.14,1.456c.09.436.143.872.264,1.306.123-.434.176-.87.264-1.306a2.407,2.407,0,0,1,.362-1.076,2.046,2.046,0,0,1,1.754-.934,2.609,2.609,0,0,0,2.54-3.168c-.089-.435-.142-.87-.263-1.306C343.58,426.579,343.526,427.014,343.438,427.449ZM390.3,325.933a2.525,2.525,0,0,1,1.013-.542,2.011,2.011,0,0,1,1.9.5,2.687,2.687,0,0,0,2.912.6,2.564,2.564,0,0,0,1.129-.93c.244-.37.515-.716.736-1.11-.394.221-.738.492-1.11.737a2.376,2.376,0,0,1-1.017.5,2.04,2.04,0,0,1-1.9-.579,2.609,2.609,0,0,0-4.037.444c-.245.37-.515.715-.737,1.109C389.588,326.447,389.932,326.178,390.3,325.933Zm-35.25,31.928a2.551,2.551,0,0,1,1.012-.544,2.017,2.017,0,0,1,1.9.5,2.687,2.687,0,0,0,2.912.6,2.552,2.552,0,0,0,1.128-.93c.245-.372.516-.716.737-1.11-.394.221-.74.492-1.11.735a2.365,2.365,0,0,1-1.017.505,2.041,2.041,0,0,1-1.9-.58,2.609,2.609,0,0,0-4.036.445c-.245.37-.515.715-.737,1.109C354.338,358.375,354.683,358.106,355.053,357.861ZM331.173,404.9a2.565,2.565,0,0,1,1.012-.542,2.014,2.014,0,0,1,1.9.5,2.693,2.693,0,0,0,2.912.6,2.546,2.546,0,0,0,1.128-.932c.245-.37.516-.715.737-1.11-.394.222-.74.493-1.11.737a2.38,2.38,0,0,1-1.017.505,2.041,2.041,0,0,1-1.9-.58,2.61,2.61,0,0,0-4.037.445c-.245.37-.515.715-.737,1.109C330.458,405.412,330.8,405.141,331.173,404.9ZM341.5,453.771a2.563,2.563,0,0,1,1.012-.542,2.016,2.016,0,0,1,1.9.5,2.69,2.69,0,0,0,2.912.6,2.56,2.56,0,0,0,1.128-.93c.245-.372.516-.716.737-1.111-.394.222-.74.493-1.11.737a2.388,2.388,0,0,1-1.017.505,2.041,2.041,0,0,1-1.9-.58,2.612,2.612,0,0,0-4.037.444c-.245.372-.515.716-.737,1.11C340.781,454.287,341.125,454.016,341.5,453.771Zm46.208-53.71a2.542,2.542,0,0,1,1.013-.542,2.011,2.011,0,0,1,1.9.5,2.69,2.69,0,0,0,2.912.6,2.558,2.558,0,0,0,1.129-.932c.244-.37.515-.715.735-1.11-.394.222-.738.492-1.11.737a2.38,2.38,0,0,1-1.017.505,2.041,2.041,0,0,1-1.9-.58,2.61,2.61,0,0,0-4.036.444c-.245.372-.516.716-.738,1.11C386.989,400.577,387.334,400.306,387.7,400.061Zm31.807,19.467a2.529,2.529,0,0,1,1.012-.542,2.013,2.013,0,0,1,1.9.5,2.687,2.687,0,0,0,2.912.6,2.56,2.56,0,0,0,1.128-.93c.245-.37.516-.716.737-1.11-.394.221-.74.492-1.11.737a2.377,2.377,0,0,1-1.017.5,2.044,2.044,0,0,1-1.9-.579,2.611,2.611,0,0,0-4.036.444c-.245.37-.516.715-.737,1.109C418.8,420.042,419.14,419.773,419.511,419.528ZM366.01,434.3a2.547,2.547,0,0,1,1.012-.542,2.013,2.013,0,0,1,1.9.5,2.687,2.687,0,0,0,2.912.6,2.559,2.559,0,0,0,1.128-.93c.244-.37.515-.716.737-1.11-.395.221-.74.492-1.11.737a2.369,2.369,0,0,1-1.017.5,2.043,2.043,0,0,1-1.9-.579,2.611,2.611,0,0,0-4.036.444c-.245.37-.516.715-.738,1.11C365.294,434.82,365.638,434.549,366.01,434.3Zm69,19.467a2.563,2.563,0,0,1,1.012-.542,2.014,2.014,0,0,1,1.9.5,2.688,2.688,0,0,0,2.911.6,2.557,2.557,0,0,0,1.129-.93c.244-.372.515-.716.737-1.111-.395.222-.74.493-1.11.737a2.388,2.388,0,0,1-1.017.505,2.044,2.044,0,0,1-1.9-.58,2.608,2.608,0,0,0-4.036.445c-.245.371-.516.715-.738,1.109C434.3,454.287,434.64,454.016,435.012,453.771Zm12.311-52.9a1.994,1.994,0,0,1-.858-.518,2.613,2.613,0,0,0-4.032.449c-.245.368-.518.708-.735,1.1.395-.218.735-.49,1.1-.735a2.732,2.732,0,0,1,1.008-.545,2.039,2.039,0,0,1,1.907.5,2.7,2.7,0,0,0,1.893.8ZM316.775,441.036a2.551,2.551,0,0,1,1.013-.542,2.014,2.014,0,0,1,1.9.5,2.685,2.685,0,0,0,2.911.6,2.547,2.547,0,0,0,1.129-.93c.244-.37.515-.716.737-1.11-.395.221-.74.492-1.111.737a2.368,2.368,0,0,1-1.017.5,2.04,2.04,0,0,1-1.9-.579,2.61,2.61,0,0,0-4.036.444c-.245.37-.516.716-.738,1.109C316.06,441.552,316.405,441.281,316.775,441.036Zm-3.94-82.068a2.552,2.552,0,0,1,1.013-.542,2.011,2.011,0,0,1,1.9.5,2.687,2.687,0,0,0,2.912.6,2.555,2.555,0,0,0,1.129-.93c.244-.371.515-.715.735-1.11-.394.222-.738.492-1.11.737a2.362,2.362,0,0,1-1.017.5,2.04,2.04,0,0,1-1.9-.579,2.61,2.61,0,0,0-4.036.444c-.245.37-.516.716-.738,1.11C312.12,359.484,312.465,359.213,312.835,358.968Z" transform="translate(-295.486 -265.488)" fill="#fff"/>
        <path id="Path_642" data-name="Path 642" d="M320.17,302.116q-2.255,8.154-4.36,16.332c.184-2.379.443-4.755.749-7.121.018-.14-.2-.2-.226-.055a51.217,51.217,0,0,0-.977,8.92c-1.677,6.578-3.267,13.176-4.73,19.813-2.8,12.72-5.29,25.529-7.353,38.381-1.163,7.247-2.065,14.543-3.3,21.776-.025.135.189.188.214.052,1.137-6.415,2.648-12.8,4.045-19.165q2.084-9.492,4.049-19.005c2.642-12.752,5.437-25.473,8.066-38.229,1.479-7.186,2.857-14.391,4.342-21.575A.265.265,0,0,0,320.17,302.116Z" transform="translate(-294.195 -254.02)" fill="#263238"/>
      </g>
      <g id="Group_401" data-name="Group 401" transform="translate(171.818)">
        <path id="Path_643" data-name="Path 643" d="M318.577,243.847c1.813,9.918-3.773,19.248-12.473,20.837s-17.225-5.161-19.038-15.079,3.773-19.246,12.473-20.837S316.764,233.929,318.577,243.847Z" transform="translate(-277.605 -178.39)" fill="#455a64"/>
        <path id="Path_644" data-name="Path 644" d="M323.361,244.08c2.017,11.034-4.195,21.412-13.876,23.181s-19.161-5.741-21.178-16.774,4.2-21.413,13.876-23.183S321.345,233.047,323.361,244.08Z" transform="translate(-277.169 -178.929)" fill="#c7c7c7"/>
        <g id="Group_387" data-name="Group 387" transform="translate(50.012 73.549)">
          <g id="Group_386" data-name="Group 386" transform="translate(0.003)">
            <path id="Path_645" data-name="Path 645" d="M340.53,315.162c9.861-.057,22.41-18.189,25.931-31.271.236-.9-10.734-31.77-12.272-38.113-.309-1.3-37.44,19.314-37.44,19.314s7.135,12.349,9.751,23.424C326.709,289.445,331,315.211,340.53,315.162Z" transform="translate(-316.75 -245.718)" fill="#dd6a57"/>
          </g>
          <path id="Path_646" data-name="Path 646" d="M331.049,290.773a22.394,22.394,0,0,1-3.936.722c-.163-.776-.3-1.43-.395-1.934a.148.148,0,0,0-.014-.068.8.8,0,0,0-.027-.177c-.041-.191-.068-.395-.123-.6a.4.4,0,0,0-.027-.123l-.041-.163a66.021,66.021,0,0,0-2.234-7.3,115.621,115.621,0,0,0-6.074-13.5q-.286-.552-.531-.981c-.49-.913-.8-1.471-.872-1.607-.027-.014-.027-.027-.027-.027h.014c.082-.055.422-.245.981-.558.354-.191.79-.436,1.308-.722a.071.071,0,0,0,.054-.027l.872-.477c.34-.191.695-.381,1.076-.6.313-.163.654-.354.994-.545.054-.027.123-.068.191-.109.409-.218.844-.449,1.294-.708.1-.054.2-.109.3-.163.422-.232.858-.463,1.294-.708.218-.123.449-.245.681-.368.681-.368,1.376-.749,2.1-1.144.531-.286,1.062-.572,1.607-.872.449-.245.913-.49,1.362-.735,1.525-.831,3.092-1.675,4.658-2.506.5-.272,1.008-.545,1.5-.817,1.839-.981,3.65-1.934,5.38-2.833.395-.2.776-.409,1.158-.6.259-.136.518-.272.763-.395.313-.163.613-.313.913-.477.681-.354,1.335-.681,1.961-.994l1.2-.6c.586-.3,1.13-.558,1.648-.8.259-.136.518-.245.749-.354.708-.34,1.321-.613,1.825-.817.123-.054.232-.1.327-.136v.014C353.413,256.71,352.555,285.026,331.049,290.773Z" transform="translate(-316.748 -245.635)" fill="#263238"/>
        </g>
        <g id="Group_400" data-name="Group 400">
          <g id="Group_388" data-name="Group 388" transform="translate(16.691 12.49)">
            <path id="Path_647" data-name="Path 647" d="M351.905,214.215c8.792,12.371,14.779,54.577,7.94,66.712-9.914,17.59-32.751,26.569-49.366,13.141-16.1-13.015-22.933-68.157-14.68-79.863C307.959,196.961,338.917,195.942,351.905,214.215Z" transform="translate(-292.284 -200.889)" fill="#dd6a57"/>
          </g>
          <g id="Group_394" data-name="Group 394" transform="translate(19.044 49.12)">
            <g id="Group_389" data-name="Group 389" transform="translate(25.778 10.533)">
              <path id="Path_648" data-name="Path 648" d="M312.95,238.033c.005-.11.241.1.255.219.327,2.855,1.182,6.068,3.891,6.633.083.018.1.162,0,.163C313.894,245.068,312.8,240.79,312.95,238.033Z" transform="translate(-312.937 -234.616)" fill="#263238"/>
              <path id="Path_649" data-name="Path 649" d="M315.049,235.6c4.519-1.017,6.222,8.093,2.036,9.037C312.965,245.559,311.263,236.448,315.049,235.6Z" transform="translate(-312.936 -235.516)" fill="#263238"/>
            </g>
            <g id="Group_390" data-name="Group 390" transform="translate(4.331 14.798)">
              <path id="Path_650" data-name="Path 650" d="M302.022,240.483c-.041-.1-.2.174-.17.289.617,2.806.851,6.122-1.527,7.537-.074.044-.039.185.053.154C303.411,247.442,303.057,243.041,302.022,240.483Z" transform="translate(-296.071 -237.992)" fill="#263238"/>
              <path id="Path_651" data-name="Path 651" d="M300.07,238.662c-4.6.505-3.257,9.676,1.008,9.208C305.276,247.411,303.929,238.24,300.07,238.662Z" transform="translate(-297.191 -238.648)" fill="#263238"/>
            </g>
            <path id="Path_652" data-name="Path 652" d="M318.671,233.557a36.035,36.035,0,0,1-3.76-.584c-1.441-.24-2.612-.282-3.722-1.325a1.962,1.962,0,0,1-.127-2.39c1.141-1.466,2.979-1.611,4.725-1.393a7.147,7.147,0,0,1,4.612,2.28A2.092,2.092,0,0,1,318.671,233.557Z" transform="translate(-287.964 -227.783)" fill="#263238"/>
            <path id="Path_653" data-name="Path 653" d="M296.84,237.62A35.931,35.931,0,0,0,300.286,236c1.316-.635,2.428-1.005,3.2-2.318a1.96,1.96,0,0,0-.55-2.33c-1.506-1.085-3.31-.708-4.924-.01a7.142,7.142,0,0,0-3.786,3.484A2.092,2.092,0,0,0,296.84,237.62Z" transform="translate(-294.011 -226.736)" fill="#263238"/>
            <path id="Path_654" data-name="Path 654" d="M320.429,256.789c-.553.787-1.057,1.824-2.065,2.1a7.586,7.586,0,0,1-3.167-.143.1.1,0,0,0-.1.168,3.863,3.863,0,0,0,3.868.862,3.055,3.055,0,0,0,1.753-2.911C320.735,256.694,320.509,256.675,320.429,256.789Z" transform="translate(-286.387 -217.308)" fill="#263238"/>
            <g id="Group_392" data-name="Group 392" transform="translate(10.972 3.262)">
              <g id="Group_391" data-name="Group 391">
                <path id="Path_655" data-name="Path 655" d="M320.589,258.5a9.769,9.769,0,0,1-5.614,5.475,12.292,12.292,0,0,1-3.428.8,3.581,3.581,0,0,1-.674.048c-.211.014-.4.023-.636.02a.714.714,0,0,1-.684-.526l0-.022a1.4,1.4,0,0,1-.027-.293l0-.022-.041-.248c-.466-2.163-.872-5.507-.872-5.507-.72.546-4.428,3.124-4.576,1.976-1.2-9.5-2.526-20.07-1.709-29.78a.266.266,0,0,1,.528-.025c1.512,9.089,1.414,18.38,2.787,27.533,1.2-.731,3.137-2.035,4.278-2.224.326.031.671,6.478.957,7.431a.36.36,0,0,0,.038.1c3.739-.217,6.284-1.833,9.371-4.948C320.458,258.1,320.717,258.245,320.589,258.5Z" transform="translate(-302.067 -230.178)" fill="#263238"/>
              </g>
            </g>
            <g id="Group_393" data-name="Group 393" transform="translate(21.529 31.515)">
              <path id="Path_656" data-name="Path 656" d="M309.818,255.93a11.6,11.6,0,0,0,5.226,2.685,5.222,5.222,0,0,0,3.152-.388c2.142-1.015,1.813-3.093,1.068-4.785a12.5,12.5,0,0,0-1.516-2.521A15.017,15.017,0,0,1,309.818,255.93Z" transform="translate(-309.818 -250.921)" fill="#263238"/>
              <path id="Path_657" data-name="Path 657" d="M313.66,257.945a5.223,5.223,0,0,0,3.152-.388c2.142-1.015,1.813-3.093,1.068-4.785C315.511,253.471,313.426,255.559,313.66,257.945Z" transform="translate(-308.434 -250.251)" fill="#ff99ba"/>
            </g>
          </g>
          <g id="Group_396" data-name="Group 396">
            <path id="Path_658" data-name="Path 658" d="M337.063,230.706c2.806,3.558,8.944,12.074,11.025,12.182-2.152-13.738-5.662-25.74-11.134-32.12a28.3,28.3,0,0,0-8.04-6.494C329.7,207.891,334.088,226.981,337.063,230.706Z" transform="translate(-262.332 -187.173)" fill="#263238" opacity="0.2"/>
            <g id="Group_395" data-name="Group 395">
              <path id="Path_659" data-name="Path 659" d="M304.911,219.229a13.671,13.671,0,0,0,12.914,3.206c4.451-1.245,8.6-4.885,9.73-9.462a.109.109,0,0,1,.212.052c-1.211,4.9-4.583,9.193-9.629,10.476a14.072,14.072,0,0,1-13.459-4.026C304.534,219.316,304.751,219.081,304.911,219.229Z" transform="translate(-271.122 -184.053)" fill="#263238"/>
              <path id="Path_660" data-name="Path 660" d="M316.321,191.809c7.885-.714,15.6,2.826,19.075,7.86a15.323,15.323,0,0,1,2.6,9.756c-.005.139-.29.142-.294,0a16.826,16.826,0,0,0-9.586-14.221,21.689,21.689,0,0,0-19.316-.143,13.724,13.724,0,0,0-6.659,6.7c-.121.3-.731.182-.637-.123C303.082,196.495,309.185,192.455,316.321,191.809Z" transform="translate(-272.258 -191.718)" fill="#263238"/>
              <path id="Path_661" data-name="Path 661" d="M280.33,211.781a17.449,17.449,0,0,1,6.341-10.158c4.489-3.53,10-3.706,15.471-3.765a.115.115,0,0,1,0,.23c-4.661.067-9.384.407-13.379,3.052a17.16,17.16,0,0,0-6.952,9.187,16.722,16.722,0,0,0,9.21,19.865,16.983,16.983,0,0,0,13.466-.144c.166-.074.321.163.152.245-7.667,3.713-17.474,1.132-21.974-6.208A17.383,17.383,0,0,1,280.33,211.781Z" transform="translate(-280.029 -189.495)" fill="#263238"/>
              <path id="Path_662" data-name="Path 662" d="M359.924,225.816s5.821-14.933-1.373-22.344c-4.076-4.2-15.739-2.219-15.739-2.219s-4.572-6.3-14.553-7.387c-10.086-1.1-21.088,6.009-21.088,6.009s-9.953-4.245-18.1,1.773c-11.366,8.39-7.665,26.767,5.3,31.293,9.1,3.178,19.9-5.814,19.9-5.814,1.143.02,13.469,5.609,20.965-5.684,0,0,7.811,5.456,13.643.305C348.87,221.749,352.833,227.75,359.924,225.816Z" transform="translate(-279.212 -190.982)" fill="#263238"/>
            </g>
          </g>
          <g id="Group_397" data-name="Group 397" transform="translate(13.685 50.891)">
            <path id="Path_663" data-name="Path 663" d="M320.807,253.638a12.3,12.3,0,0,1-13.017-11.516h0a12.3,12.3,0,1,1,13.017,11.517ZM309.43,242.022a10.641,10.641,0,1,0,7.375-10.788A10.66,10.66,0,0,0,309.43,242.022Z" transform="translate(-283.672 -229.083)" fill="#ffc727"/>
            <path id="Path_664" data-name="Path 664" d="M301.728,257.167c-4.949.968-10.035-3.653-11.34-10.3a14.68,14.68,0,0,1,.895-8.931,7.656,7.656,0,0,1,12.863-2.518,14.662,14.662,0,0,1,4.2,7.932c1.231,6.292-1.359,12.182-5.837,13.617A7.115,7.115,0,0,1,301.728,257.167Zm-8.954-18.541A13.043,13.043,0,0,0,292,246.55c1.129,5.759,5.351,9.8,9.413,9,4.077-.794,6.448-6.129,5.321-11.89a13.053,13.053,0,0,0-3.707-7.046,6.552,6.552,0,0,0-5.708-1.957,5.092,5.092,0,0,0-.6.155A6.772,6.772,0,0,0,292.774,238.626Z" transform="translate(-290.076 -227.696)" fill="#ffc727"/>
            <path id="Path_665" data-name="Path 665" d="M310.487,240.32l.794-1.438c-2.129-1.177-6.764-2.415-9.091,1.314l1.393.869C305.663,237.722,310.291,240.215,310.487,240.32Z" transform="translate(-285.691 -225.964)" fill="#ffc727"/>
            <path id="Path_666" data-name="Path 666" d="M356.893,235.97l1.287-1.021c-.478-.6-4.76-5.861-8.474-5.739-3.472.123-24.686,6.381-25.588,6.648l.467,1.576c6.081-1.8,22.492-6.5,25.174-6.581C352.212,230.772,355.739,234.52,356.893,235.97Z" transform="translate(-277.754 -229.038)" fill="#ffc727"/>
          </g>
          <g id="Group_398" data-name="Group 398" transform="translate(78.616 46.62)">
            <path id="Path_667" data-name="Path 667" d="M337.75,240.4s5.026-15.765,11.905-14.365,5.911,22.288-.188,27a7.345,7.345,0,0,1-10.572-.846Z" transform="translate(-337.75 -225.947)" fill="#dd6a57"/>
            <path id="Path_668" data-name="Path 668" d="M348.1,230.405c.108-.044.177.1.094.173-4.228,3.464-5.378,8.741-5.715,13.945.883-2.236,2.535-3.827,5.466-2.862.154.052.094.286-.05.3a4.519,4.519,0,0,0-4.281,2.983,21.823,21.823,0,0,0-1.079,4.549c-.093.5-.945.515-.936-.035,0-.04,0-.082.005-.124C339.568,243.206,341.676,233.086,348.1,230.405Z" transform="translate(-336.625 -224.337)" fill="#263238"/>
          </g>
          <g id="Group_399" data-name="Group 399" transform="translate(27.959 1.468)">
            <path id="Path_669" data-name="Path 669" d="M358.816,240.466s-.979-22.04-8.734-33.391c-8.632-12.637-32.466-21.1-49.525-6.854,0,0,24.771-6.434,40.984,8.784,7.457,7,10.037,32.86,10.037,32.86Z" transform="translate(-300.557 -192.796)" fill="#c7c7c7"/>
            <ellipse id="Ellipse_37" data-name="Ellipse 37" cx="17.818" cy="20.309" rx="17.818" ry="20.309" transform="translate(36.954 40.806) rotate(-5.792)" fill="#c7c7c7"/>
            <path id="Path_670" data-name="Path 670" d="M332.967,242.018c1.017,10.031,8.977,17.439,17.777,16.547s15.11-9.748,14.093-19.779-8.977-17.439-17.777-16.546S331.949,231.987,332.967,242.018Z" transform="translate(-288.864 -182.164)" fill="#455a64"/>
          </g>
        </g>
      </g>
      <g id="Group_411" data-name="Group 411" transform="translate(104.699 108.495)">
        <g id="Group_408" data-name="Group 408" transform="translate(0 0.449)">
          <path id="Path_671" data-name="Path 671" d="M398.289,283.6c26.4,28.272,89.19,134.369,68.833,153.933-20.5,19.7-133.343-6.77-165.079-21.89-9.44-4.5,26.434-63.356,37.53-64.73,9.237-1.144,56.467,20.46,57.833,17.741,1.543-3.069-9.184-22.777-20.546-63.808C363.758,257.538,386.629,271.115,398.289,283.6Z" transform="translate(-205.508 -271.707)" fill="#dd6a57"/>
          <g id="Group_407" data-name="Group 407" transform="translate(0.67 42.222)">
            <path id="Path_672" data-name="Path 672" d="M311.994,320.7c-22.944-3.2-29.325-.494-47.259-13.476-11.766-8.518-22.255-4.659-15.542,8.876,10.98,22.137,39.717,32.477,50.713,33.192Z" transform="translate(-225.503 -302.707)" fill="#dd6a57"/>
            <g id="Group_402" data-name="Group 402" transform="translate(0 17.237)">
              <path id="Path_673" data-name="Path 673" d="M378.679,338.2s-25.781-14.316-49.9-20.141c-16.676-4.027-53.934-8.745-89.58,28.015-8.455,8.72-14.32,27.141,4.662,17.914,13.482-6.553,20.053-14.782,28.59-17.165,0,0-4.678,24.316,4.387,32.445,4.051,3.632,15.341,13.29,25.2,19.556a47.154,47.154,0,0,0,4.082-4.39s9.185,6.795,26.477,5.148Z" transform="translate(-231.241 -315.363)" fill="#dd6a57"/>
            </g>
            <g id="Group_406" data-name="Group 406" transform="translate(20.06 18.633)">
              <path id="Path_674" data-name="Path 674" d="M306.922,316.388c-7.973,4.158-24.723,13.252-35.838,25.457-12.345,13.557-32.473,43-22.371,52.009,7.407,6.607,16.08-3.958,16.08-3.958s-5.754,13.922,2.242,18.428c7.287,4.1,13.507-4.471,13.507-4.471S278.5,412.9,286.283,415.5c9.358,3.13,12.1-16.343,24.313-21.362C313.34,393.011,306.922,316.388,306.922,316.388Z" transform="translate(-245.969 -316.388)" fill="#dd6a57"/>
              <g id="Group_405" data-name="Group 405" transform="translate(18.685 36.095)">
                <g id="Group_403" data-name="Group 403">
                  <path id="Path_675" data-name="Path 675" d="M282.619,342.907c-6.858,5.139-19.436,20.807-22.916,37.035-.078.368.157.624.3.3a180,180,0,0,1,22.744-37.223C282.811,342.945,282.695,342.849,282.619,342.907Z" transform="translate(-259.688 -342.889)" fill="#263238"/>
                </g>
                <g id="Group_404" data-name="Group 404" transform="translate(15.577 12.855)">
                  <path id="Path_676" data-name="Path 676" d="M291.8,352.35c-5.46,5.042-17.7,21.77-20.666,38.336-.067.37.188.612.317.286a192.839,192.839,0,0,1,20.483-38.513C291.995,352.377,291.872,352.284,291.8,352.35Z" transform="translate(-271.125 -352.328)" fill="#263238"/>
                </g>
              </g>
            </g>
          </g>
          <path id="Path_677" data-name="Path 677" d="M272.628,338.354c-7.476,2.2-12.34,5.87-18.651,10.252a102.821,102.821,0,0,1-9.632,6.1c-3.047,1.647-7.539,4.136-10.783,1.557-1.8-1.436-1.779-4.048-1.377-6.109a16.506,16.506,0,0,1,2.709-6.459c.069-.1-.1-.222-.17-.125a22.185,22.185,0,0,0-3.093,5.527,9.964,9.964,0,0,0-.676,5.836c1.1,4.124,5.961,4.666,9.4,3.532a32.616,32.616,0,0,0,5.885-2.849c1.813-1.039,3.574-2.166,5.306-3.336,3.555-2.4,6.967-5.005,10.493-7.447a97.431,97.431,0,0,1,10.7-6.23C272.881,338.528,272.776,338.31,272.628,338.354Z" transform="translate(-230.749 -247.583)" fill="#263238"/>
          <path id="Path_678" data-name="Path 678" d="M251.692,364.659c1.934-4.263,12.412-22.021,15.811-26.13a.107.107,0,0,0-.155-.147c-5.828,5.526-15.194,20.2-17.378,24.9-2.156,4.646-4.642,10.584-4.642,15.764,0,7.812,5.181,9.293,7.1,9.674a10.125,10.125,0,0,0,6.648-1.088,20.388,20.388,0,0,0,6.027-5.663c.082-.106-.061-.252-.154-.147-2.706,3.077-7.2,6.115-11.45,5.557a7.1,7.1,0,0,1-4.831-2.607c-1.323-1.794-1.429-4.154-1.249-6.292C247.823,373.64,249.705,369.04,251.692,364.659Z" transform="translate(-225.471 -247.582)" fill="#263238"/>
          <path id="Path_679" data-name="Path 679" d="M275.9,384.177c-1.087.93-3.329,4.17-6.888,4.862-2.6.507-5.327.26-7.327-1.636a10.152,10.152,0,0,1-2.813-7.105,65.521,65.521,0,0,1,1.636-9.832c.041-.151-.15-.221-.2-.078-1.129,3.449-2.345,7.2-2.347,10.579a10.642,10.642,0,0,0,2.991,7.788,7.987,7.987,0,0,0,8.177,1.7c1.392-.52,5.788-3.337,7.066-6.118C276.227,384.272,275.947,384.136,275.9,384.177Z" transform="translate(-220.897 -236.013)" fill="#263238"/>
          <path id="Path_680" data-name="Path 680" d="M300.816,372.45a18.934,18.934,0,0,0-3.311,2.793c-1.1,1.054-2.156,2.153-3.188,3.27a44.237,44.237,0,0,0-5.4,7.405c-1.579,2.65-3.032,5.6-5.606,7.446a7.314,7.314,0,0,1-8.552.212,7.152,7.152,0,0,1-2.671-3.962,13.924,13.924,0,0,1-.5-5.329.106.106,0,1,0-.21-.023,24.67,24.67,0,0,0-.384,4.842,8.523,8.523,0,0,0,1.532,4.115,8.153,8.153,0,0,0,7.976,2.98c3.263-.6,5.658-3.054,7.43-5.707,1.975-2.954,3.6-6.106,5.707-8.978,1.109-1.512,2.2-3.037,3.414-4.465,1.264-1.487,2.781-2.818,3.946-4.379C301.089,372.547,300.968,372.362,300.816,372.45Z" transform="translate(-216.198 -235.247)" fill="#263238"/>
          <path id="Path_681" data-name="Path 681" d="M303,378.031a67.153,67.153,0,0,1-12.582-2.61c-.131-.042-.315.326-.195.392a29.752,29.752,0,0,0,6.2,2.048,22.238,22.238,0,0,0,6.54.4C303.084,378.248,303.138,378.044,303,378.031Z" transform="translate(-209.235 -234.164)" fill="#263238"/>
          <path id="Path_682" data-name="Path 682" d="M417.878,364.446a165.287,165.287,0,0,0-20.77-11.868,160.571,160.571,0,0,0-22.044-8.54c-4.294-1.363-8.639-2.513-12.985-3.7a.107.107,0,0,0-.052.207,206.4,206.4,0,0,1,22.263,8.36q10.854,4.68,21.518,9.749c4.025,1.915,7.958,4.019,11.916,6.068A.16.16,0,0,0,417.878,364.446Z" transform="translate(-183.255 -246.862)" fill="#263238"/>
        </g>
        <g id="Group_410" data-name="Group 410" transform="translate(165.726)">
          <path id="Path_683" data-name="Path 683" d="M433.549,350.4l-64.076-2.121S357.545,316.655,353,288.519s18.505-19.547,42.566,10.574S433.549,350.4,433.549,350.4Z" transform="translate(-352.428 -271.377)" fill="#76c8fe"/>
          <path id="Path_684" data-name="Path 684" d="M372.225,323.086a2.471,2.471,0,0,1-1.022.5,2.029,2.029,0,0,1-1.893-.586,2.662,2.662,0,0,0-2.942-.5,2.636,2.636,0,0,0-1.1.953c-.245.368-.518.708-.736,1.1.4-.218.736-.49,1.117-.735a2.536,2.536,0,0,1,1.008-.545,2.048,2.048,0,0,1,1.907.5,2.684,2.684,0,0,0,2.9.613,2.586,2.586,0,0,0,1.13-.94c.245-.368.518-.708.735-1.1C372.934,322.568,372.593,322.841,372.225,323.086ZM392.437,311.3c-.1-.436-.15-.872-.272-1.307-.123.436-.177.872-.259,1.307a2.567,2.567,0,0,1-.327,1.09,2.018,2.018,0,0,1-1.7.994,2.683,2.683,0,0,0-2.492,1.634,2.581,2.581,0,0,0-.136,1.457c.082.436.136.872.259,1.308.123-.436.177-.872.272-1.308a2.341,2.341,0,0,1,.354-1.076,2.069,2.069,0,0,1,1.757-.94,2.628,2.628,0,0,0,2.547-3.16ZM369.923,276.07a2.549,2.549,0,0,0,.041.463c.1.422.136.858.259,1.294.123-.436.177-.872.272-1.294v-.027C370.3,276.342,370.114,276.206,369.923,276.07ZM415.6,329.365a1.818,1.818,0,0,1-1.267-.558,2.7,2.7,0,0,0-2.915-.6,2.559,2.559,0,0,0-1.13.926c-.245.381-.518.722-.736,1.117.395-.218.736-.49,1.117-.735a2.137,2.137,0,0,1,1.008-.5,2.047,2.047,0,0,1,1.907.572,2.686,2.686,0,0,0,2.629.64Q415.932,329.814,415.6,329.365Zm-44.347-31.939a2.573,2.573,0,0,1-1.09-.354,2.056,2.056,0,0,1-.926-1.757,2.672,2.672,0,0,0-1.716-2.452,2.7,2.7,0,0,0-1.457-.1c-.436.1-.872.15-1.307.272.436.109.872.163,1.307.259a2.629,2.629,0,0,1,1.1.327,2.049,2.049,0,0,1,.994,1.7,2.7,2.7,0,0,0,1.634,2.492,2.581,2.581,0,0,0,1.457.136c.422-.1.858-.136,1.294-.259C372.116,297.576,371.68,297.521,371.258,297.426Zm29.474,44.823a2.347,2.347,0,0,1-1.076-.368,2.035,2.035,0,0,1-.94-1.757,2.6,2.6,0,0,0-3.16-2.533c-.436.1-.872.136-1.307.259.436.123.872.177,1.307.272a2.389,2.389,0,0,1,1.09.327,1.984,1.984,0,0,1,.994,1.7,2.679,2.679,0,0,0,1.634,2.479,2.476,2.476,0,0,0,1.457.15c.436-.1.872-.15,1.308-.272C401.6,342.386,401.168,342.331,400.732,342.249Z" transform="translate(-348.047 -269.678)" fill="#fff"/>
          <g id="Group_409" data-name="Group 409" transform="translate(5.512 41.864)">
            <path id="Path_685" data-name="Path 685" d="M370.643,336.94c-.345,0-2.6-.4-2.61-.4-.159-.842-3.815-14.06-4.776-16.936-1.957-5.861-4.259-11.625-6.479-17.39a.155.155,0,0,0-.3.09c1.446,4.959,2.8,9.952,4.289,14.9-.448-.7-.891-1.407-1.314-2.125-.868-1.468-1.625-2.994-2.435-4.493-.072-.133-.285-.034-.241.109a25.27,25.27,0,0,0,2.825,5.895,21.214,21.214,0,0,0,1.666,2.264c.127.411.247.825.375,1.235.91,2.893,5.6,17.2,5.843,17.22.057,0,2.373.054,3.09.06C370.756,337.375,370.82,336.941,370.643,336.94Z" transform="translate(-356.475 -302.114)" fill="#263238"/>
            <path id="Path_686" data-name="Path 686" d="M418.584,320.554c-13.819-1.032-27.73-1.1-41.606-.893q-5.888.088-11.77.454c-.11.007-.131.169-.015.174,6.912.369,13.837.458,20.762.584,6.942.128,13.9.2,20.843.133,3.923-.038,7.842-.072,11.765-.191C418.731,320.811,418.757,320.567,418.584,320.554Z" transform="translate(-353.347 -295.797)" fill="#263238"/>
          </g>
        </g>
      </g>
    </g>
    <g id="Group_423" data-name="Group 423" transform="translate(210.256 529.095)">
      <g id="Group_422" data-name="Group 422" transform="translate(2.395 0)">
        <g id="Group_413" data-name="Group 413" transform="translate(101.495 3.377)">
          <rect id="Rectangle_181" data-name="Rectangle 181" width="9.783" height="6.387" transform="translate(9.783 6.387) rotate(180)" fill="#455a64"/>
        </g>
        <g id="Group_414" data-name="Group 414" transform="translate(88.808 2.955)">
          <rect id="Rectangle_182" data-name="Rectangle 182" width="9.783" height="6.387" transform="translate(9.783 6.387) rotate(180)" fill="#455a64"/>
        </g>
        <g id="Group_415" data-name="Group 415" transform="translate(76.121 2.533)">
          <rect id="Rectangle_183" data-name="Rectangle 183" width="9.783" height="6.387" transform="translate(9.783 6.387) rotate(180)" fill="#455a64"/>
        </g>
        <g id="Group_416" data-name="Group 416" transform="translate(63.434 2.11)">
          <rect id="Rectangle_184" data-name="Rectangle 184" width="9.783" height="6.387" transform="translate(9.783 6.387) rotate(180)" fill="#455a64"/>
        </g>
        <g id="Group_417" data-name="Group 417" transform="translate(50.747 1.688)">
          <rect id="Rectangle_185" data-name="Rectangle 185" width="9.784" height="6.387" transform="translate(9.784 6.387) rotate(180)" fill="#455a64"/>
        </g>
        <g id="Group_418" data-name="Group 418" transform="translate(38.061 1.266)">
          <rect id="Rectangle_186" data-name="Rectangle 186" width="9.783" height="6.387" transform="translate(9.783 6.387) rotate(180)" fill="#455a64"/>
        </g>
        <g id="Group_419" data-name="Group 419" transform="translate(25.374 0.844)">
          <rect id="Rectangle_187" data-name="Rectangle 187" width="9.783" height="6.387" transform="translate(9.783 6.387) rotate(180)" fill="#455a64"/>
        </g>
        <g id="Group_420" data-name="Group 420" transform="translate(12.687 0.422)">
          <rect id="Rectangle_188" data-name="Rectangle 188" width="9.783" height="6.387" transform="translate(9.783 6.387) rotate(180)" fill="#455a64"/>
        </g>
        <g id="Group_421" data-name="Group 421" transform="translate(0)">
          <rect id="Rectangle_189" data-name="Rectangle 189" width="9.784" height="6.387" transform="translate(9.784 6.387) rotate(180)" fill="#455a64"/>
        </g>
      </g>
      <path id="Path_687" data-name="Path 687" d="M165.2,416.288H281.27v-7.772L165.2,405.279Z" transform="translate(-165.202 -402.85)" fill="#37474f"/>
    </g>
    <g id="Group_426" data-name="Group 426" transform="translate(59.41 369.234)">
      <g id="Group_424" data-name="Group 424">
        <path id="Path_688" data-name="Path 688" d="M90.124,428.773H281.736l-30.472-142.65H59.652Z" transform="translate(-52.564 -286.123)" fill="#455a64"/>
        <path id="Path_689" data-name="Path 689" d="M84.92,428.773H276.532L246.06,286.123H54.448Z" transform="translate(-54.448 -286.123)" fill="#37474f"/>
        <path id="Path_690" data-name="Path 690" d="M123.859,335.571a14.417,14.417,0,0,0,13.723,11.848c6.543,0,11.008-5.3,9.971-11.848a14.415,14.415,0,0,0-13.723-11.847C127.287,323.724,122.822,329.028,123.859,335.571Z" transform="translate(-29.376 -272.511)" fill="#263238"/>
      </g>
      <g id="Group_425" data-name="Group 425" transform="translate(50.714 99.962)">
        <path id="Path_691" data-name="Path 691" d="M116.61,420.968h94.24v-7.318L116.61,410.6Z" transform="translate(-82.66 -341.024)" fill="#455a64"/>
        <path id="Path_692" data-name="Path 692" d="M97.8,439.45h50.6l30.472-79.934h-50.6Z" transform="translate(-89.47 -359.517)" fill="#455a64"/>
        <path id="Path_693" data-name="Path 693" d="M91.683,439.45h50.6l30.472-79.934h-50.6Z" transform="translate(-91.683 -359.517)" fill="#263238"/>
      </g>
    </g>
    <g id="Group_428" data-name="Group 428" transform="translate(328.54 516.852)">
      <path id="Path_694" data-name="Path 694" d="M253.416,428.738h97.159c8.293,0-3.706-23.61-33.967-32.667S243.871,419.881,253.416,428.738Z" transform="translate(-252.048 -394.507)" fill="#37474f"/>
      <g id="Group_427" data-name="Group 427" transform="translate(1.368 8.394)">
        <path id="Path_695" data-name="Path 695" d="M285.453,426.507s-1.747-18.258-16.584-25.837" transform="translate(-247.326 -400.67)" fill="none" stroke="#263238" stroke-miterlimit="10" stroke-width="1"/>
        <path id="Path_696" data-name="Path 696" d="M279.665,403.146s-25.068,10.083-26.613,22.465" transform="translate(-253.052 -399.774)" fill="none" stroke="#263238" stroke-miterlimit="10" stroke-width="1"/>
      </g>
    </g>
    <path id="Path_697" data-name="Path 697" d="M400.655,378.132l-5.766,72.505H355l-5.766-72.505Z" transform="translate(111.673 116.418)" fill="#ffc727"/>
    <path id="Path_698" data-name="Path 698" d="M400.655,378.132l-5.766,72.505H355l-5.766-72.505Z" transform="translate(111.673 116.418)" fill="#76c8fe"/>
    <rect id="Rectangle_190" data-name="Rectangle 190" width="58.63" height="10.571" transform="translate(457.133 488.004)" fill="#455a64"/>
    <path id="Path_699" data-name="Path 699" d="M400.007,376.482H349.413l2.957-11.876h44.68Z" transform="translate(111.738 111.522)" fill="#37474f"/>
    <path id="Path_700" data-name="Path 700" d="M385.639,409.747c0,9.414-6.2,17.044-13.847,17.044s-13.849-7.63-13.849-17.044,6.2-17.044,13.849-17.044S385.639,400.334,385.639,409.747Z" transform="translate(114.826 121.692)" fill="#fff"/>
  </g>
</svg>
