<svg xmlns="http://www.w3.org/2000/svg" width="35.521" height="35.521" viewBox="0 0 35.521 35.521">
  <path id="Icon_awesome-facebook-square" data-name="Icon awesome-facebook-square" d="M31.716,2.25H3.806A3.806,3.806,0,0,0,0,6.056v27.91a3.806,3.806,0,0,0,3.806,3.806H14.688V25.7h-5V20.011h5V15.678c0-4.928,2.934-7.65,7.427-7.65a30.262,30.262,0,0,1,4.4.384v4.837H24.038c-2.443,0-3.2,1.516-3.2,3.071v3.691h5.454L25.415,25.7H20.833V37.772H31.716a3.806,3.806,0,0,0,3.806-3.806V6.056A3.806,3.806,0,0,0,31.716,2.25Z" transform="translate(0 -2.25)" fill="#4267b2"/>
</svg>
