<svg xmlns="http://www.w3.org/2000/svg" width="28.93" height="28.93" viewBox="0 0 28.93 28.93">
  <path id="Icon_simple-instagram" data-name="Icon simple-instagram" d="M14.465,0c-3.93,0-4.42.018-5.963.087A10.666,10.666,0,0,0,4.99.759,7.084,7.084,0,0,0,2.428,2.428,7.058,7.058,0,0,0,.759,4.99,10.635,10.635,0,0,0,.087,8.5C.014,10.045,0,10.535,0,14.465s.018,4.42.087,5.963a10.673,10.673,0,0,0,.673,3.511A7.094,7.094,0,0,0,2.428,26.5,7.073,7.073,0,0,0,4.99,28.17a10.679,10.679,0,0,0,3.511.673c1.543.072,2.034.087,5.963.087s4.42-.018,5.963-.087a10.7,10.7,0,0,0,3.511-.673,7.392,7.392,0,0,0,4.231-4.231,10.673,10.673,0,0,0,.673-3.511c.072-1.543.087-2.034.087-5.963s-.018-4.42-.087-5.963A10.7,10.7,0,0,0,28.17,4.99,7.1,7.1,0,0,0,26.5,2.428,7.048,7.048,0,0,0,23.939.759,10.641,10.641,0,0,0,20.428.087C18.885.014,18.395,0,14.465,0Zm0,2.6c3.861,0,4.321.019,5.846.086A7.97,7.97,0,0,1,23,3.19a4.76,4.76,0,0,1,2.746,2.745,7.986,7.986,0,0,1,.5,2.684c.069,1.526.084,1.984.084,5.846s-.018,4.321-.089,5.846A8.14,8.14,0,0,1,25.727,23a4.593,4.593,0,0,1-1.084,1.666,4.513,4.513,0,0,1-1.663,1.08,8.045,8.045,0,0,1-2.694.5c-1.536.069-1.988.084-5.857.084s-4.323-.018-5.857-.089a8.2,8.2,0,0,1-2.7-.507,4.479,4.479,0,0,1-1.662-1.084A4.392,4.392,0,0,1,3.129,22.98a8.209,8.209,0,0,1-.506-2.694c-.054-1.519-.074-1.988-.074-5.839s.019-4.323.074-5.859a8.2,8.2,0,0,1,.506-2.693A4.288,4.288,0,0,1,4.214,4.23,4.278,4.278,0,0,1,5.876,3.147,8.006,8.006,0,0,1,8.554,2.64c1.537-.054,1.989-.072,5.857-.072l.054.036Zm0,4.433a7.428,7.428,0,1,0,7.428,7.428A7.427,7.427,0,0,0,14.465,7.037Zm0,12.249a4.822,4.822,0,1,1,4.822-4.822A4.82,4.82,0,0,1,14.465,19.287ZM23.923,6.744A1.736,1.736,0,1,1,22.187,5.01,1.737,1.737,0,0,1,23.923,6.744Z" fill="#818181"/>
</svg>
