<svg xmlns="http://www.w3.org/2000/svg" width="25.314" height="25.313" viewBox="0 0 25.314 25.313">
  <path id="Icon_awesome-behance-square" data-name="Icon awesome-behance-square" d="M10.538,17c0,1.091-.791,1.435-1.763,1.435H6.227V15.444h2.6C9.877,15.449,10.538,15.884,10.538,17Zm-.435-4.65c0-1-.774-1.237-1.633-1.237H6.232v2.531H8.645c.853,0,1.458-.373,1.458-1.294Zm7.475,1.311a1.684,1.684,0,0,0-1.791,1.678H19.3A1.61,1.61,0,0,0,17.578,13.658Zm7.735-8.7V24.851A2.713,2.713,0,0,1,22.6,27.564H2.712A2.713,2.713,0,0,1,0,24.851V4.962A2.713,2.713,0,0,1,2.712,2.25H22.6A2.713,2.713,0,0,1,25.314,4.962ZM15.352,10.9h4.4V9.827h-4.4Zm-2.43,6.232a2.809,2.809,0,0,0-1.978-2.916,2.109,2.109,0,0,0,1.48-2.091c0-2.158-1.61-2.684-3.469-2.684H3.842V20.286H9.1C11.075,20.275,12.922,19.331,12.922,17.127Zm8.549-.836c0-2.322-1.362-4.26-3.82-4.26a3.944,3.944,0,0,0-4.017,4.159,3.828,3.828,0,0,0,4.017,4.125A3.5,3.5,0,0,0,21.33,17.67h-1.9a1.787,1.787,0,0,1-1.706,1.023A1.773,1.773,0,0,1,15.793,16.7h5.662C21.46,16.568,21.471,16.427,21.471,16.291Z" transform="translate(0 -2.25)" fill="#818181"/>
</svg>
