<svg id="Group_446" data-name="Group 446" xmlns="http://www.w3.org/2000/svg" xmlns:xlink="http://www.w3.org/1999/xlink" width="278.482" height="113.424" viewBox="0 0 278.482 113.424">
  <defs>
    <radialGradient id="radial-gradient" cx="0.329" cy="0.224" r="0.781" gradientTransform="translate(-0.01 0.01) scale(0.973 0.968)" gradientUnits="objectBoundingBox">
      <stop offset="0" stop-color="#423325" stop-opacity="0.98"/>
      <stop offset="1" stop-color="#1c0a00"/>
    </radialGradient>
    <radialGradient id="radial-gradient-2" cx="0.329" cy="0.224" r="0.781" gradientTransform="translate(-0.01 0.01) scale(0.973 0.968)" gradientUnits="objectBoundingBox">
      <stop offset="0" stop-color="#34364e" stop-opacity="0.98"/>
      <stop offset="1" stop-color="#0c0824"/>
    </radialGradient>
  </defs>
  <g id="javascript" transform="translate(120.323)">
    <path id="Path_275" data-name="Path 275" d="M39.365,489.9H0l3.69,40.019,15.99,4.535,15.99-4.535Z" transform="translate(0 -489.9)" fill="#e6a329"/>
    <path id="Path_276" data-name="Path 276" d="M887.9,637v37.9l12.956-3.67L904.008,637Z" transform="translate(-868.22 -633.74)" fill="#f1bf22"/>
    <path id="Path_277" data-name="Path 277" d="M412.908,858.5h-19.92L391.6,873.482l.029-.093h16.923L408,879.728l-5.4,1.553-5.479-1.578-.328-3.837H391.82l.709,7.667,10.072,2.859,10.076-2.859,1.388-15.048H396.1l.231-5.014H408.8l.186,2.873H414Z" transform="translate(-382.92 -850.33)" fill="#fff"/>
    <path id="Path_278" data-name="Path 278" d="M402.605,858.5h-9.618L391.6,873.482l.029-.093H402.6V868.5h-5.8l.23-5.014h5.57Zm-5.8,17.369H391.82l.71,7.662,10.071,2.856v-5.1l-5.479-1.582Z" transform="translate(-382.92 -850.33)" fill="#ebebeb"/>
  </g>
  <g id="css" transform="translate(2.595)">
    <path id="Path_336" data-name="Path 336" d="M112.235,119.474l-3.318,38.474a29.065,29.065,0,0,1-35.592,0l-3.318-38.474Z" transform="translate(-70.008 -119.474)" fill="#006bc0"/>
    <path id="Path_337" data-name="Path 337" d="M256,151.338v40.181l13.88-3.918,3.1-36.262Z" transform="translate(-234.884 -147.721)" fill="#0096dc"/>
    <path id="Path_338" data-name="Path 338" d="M165.444,206.421H155.433l10.461-5.324.452-5.352H140.013l.461,5.456h10.57L140.9,206.273l.472,5.59h18.092l-.593,6.657-5.693,1.542-5.931-1.661-.148-4.151h-5.525l.691,8.184,10.913,3.084,10.912-3.084,1.352-16.014Z" transform="translate(-132.066 -187.088)" fill="#fff"/>
  </g>
  <g id="html-5" transform="translate(61.46)">
    <path id="Path_328" data-name="Path 328" d="M113.207,119.474l-3.318,38.474a29.064,29.064,0,0,1-35.459.1L71.1,119.474Z" transform="translate(-71.105 -119.474)" fill="#e64c18"/>
    <path id="Path_329" data-name="Path 329" d="M256.546,151.249v40.063l13.84-3.907,3.087-36.156Z" transform="translate(-235.495 -147.642)" fill="#f36518"/>
    <path id="Path_330" data-name="Path 330" d="M140.9,195.528l1.357,16.07H160.3l-.59,6.638-5.677,1.537-5.913-1.656-.149-4.139h-5.508l.69,8.16,10.88,3.075,10.88-3.075,1.348-15.966h-19l-.471-5.2h0l19.917-.1.45-5.336Z" transform="translate(-132.98 -186.895)" fill="#fff"/>
  </g>
  <g id="bootstrap" transform="translate(176.244 2.791)">
    <path id="Path_342" data-name="Path 342" d="M0,36.248a5.366,5.366,0,0,0,5.366,5.366H36.248a5.366,5.366,0,0,0,5.366-5.366V5.366A5.366,5.366,0,0,0,36.248,0H5.366A5.366,5.366,0,0,0,0,5.366V36.248Z" transform="translate(0 0)" fill="#563d7c"/>
    <path id="Path_343" data-name="Path 343" d="M77.615,60.7V54.805H82.8a8.07,8.07,0,0,1,1.429.124,3.568,3.568,0,0,1,1.218.441,2.352,2.352,0,0,1,.847.882,2.93,2.93,0,0,1,.318,1.447,2.666,2.666,0,0,1-.953,2.294,3.982,3.982,0,0,1-2.435.706Zm-5.54-10.2V75.7h12.21a12.882,12.882,0,0,0,3.3-.423,8.825,8.825,0,0,0,2.858-1.306,6.431,6.431,0,0,0,1.994-2.276,7.7,7.7,0,0,0-.406-7.34A6.056,6.056,0,0,0,88.555,62a6.28,6.28,0,0,0,2.559-2.082,5.519,5.519,0,0,0,.864-3.176,6.759,6.759,0,0,0-.582-2.964,4.842,4.842,0,0,0-1.641-1.923,7.082,7.082,0,0,0-2.541-1.041,15.686,15.686,0,0,0-3.282-.318Zm5.54,20.891V64.474h6.034a4.668,4.668,0,0,1,2.894.829,3.258,3.258,0,0,1,1.094,2.77A3.463,3.463,0,0,1,87.3,69.7a2.663,2.663,0,0,1-.9,1.006,3.811,3.811,0,0,1-1.306.529,7.408,7.408,0,0,1-1.553.159Z" transform="translate(-60.359 -42.291)" fill="#fff"/>
  </g>
  <g id="Group_217" data-name="Group 217" transform="translate(59.553 69.769)">
    <g id="wordpress" transform="translate(0 0)">
      <rect id="Rectangle_71" data-name="Rectangle 71" width="43.017" height="43.435" rx="8" fill="#05a8da"/>
      <ellipse id="Ellipse_30" data-name="Ellipse 30" cx="15.453" cy="15.453" rx="15.453" ry="15.453" transform="translate(6.265 6.265)" fill="none" stroke="#fff" stroke-width="3"/>
      <path id="Path_312" data-name="Path 312" d="M115.489,152.983l2.375-1.272,4.58-13.231a13.87,13.87,0,0,0,1.1-5.258c0-2.714-1.1-5.089-3.053-5.343a2.6,2.6,0,0,0-2.714,2.629c.17,2.46,2.629,3.817,2.629,7.209,0,2.375-1.527,6.191-2.629,9.923l-5.258-15.86,1.7-.085a.6.6,0,1,0-.085-1.187,47.934,47.934,0,0,1-7.8,0,.6.6,0,1,0-.085,1.187l1.527.085,2.29,6.276-3.223,9.669L101.5,131.779l1.7-.085c.763,0,.678-1.272-.085-1.187-2.46.17-4.834.339-5.428-.085L97,132.458l7.124,19.761,2.12,1.187,4.58-13.4" transform="translate(-88.833 -117.073)" fill="#fff"/>
    </g>
  </g>
  <g id="github" transform="translate(0 68.373)">
    <path id="Path_313" data-name="Path 313" d="M44.884,22.442A22.448,22.448,0,0,1,25.9,44.619q-.364.056-.733.1a22.383,22.383,0,0,1-2.4.161l-.321,0-.321,0a22.383,22.383,0,0,1-2.4-.161q-.368-.044-.733-.1a22.443,22.443,0,1,1,25.9-22.177Z" transform="translate(0)" fill="#f2f2f2"/>
    <g id="Group_216" data-name="Group 216" transform="translate(0)">
      <path id="Path_314" data-name="Path 314" d="M44.884,22.442a22.567,22.567,0,0,1-.138,2.5c-.01.092-.02.184-.031.276q-.087.7-.215,1.383-.025.136-.052.269a22.47,22.47,0,0,1-14.9,16.863c-1.138.22-1.542-.479-1.542-1.077,0-.739.026-3.156.026-6.158a5.366,5.366,0,0,0-1.521-4.156c3.887-.432,7.927-1.676,9.53-6.265.032-.09.062-.181.092-.274q.135-.419.241-.875c.021-.091.042-.182.061-.276a16.39,16.39,0,0,0,.323-3.384,8.669,8.669,0,0,0-2.31-6.024,8.049,8.049,0,0,0-.22-5.939s-1.881-.6-6.166,2.3a21.274,21.274,0,0,0-11.239,0c-4.288-2.9-6.173-2.3-6.173-2.3a8.067,8.067,0,0,0-.217,5.939,8.688,8.688,0,0,0-2.313,6.024,16.323,16.323,0,0,0,.324,3.383c.019.093.039.185.06.276q.107.456.242.876c.029.092.06.184.092.274,1.6,4.581,5.632,5.842,9.507,6.283a4.78,4.78,0,0,0-1.425,3c-1.281.573-4.529,1.565-6.53-1.866a4.719,4.719,0,0,0-3.44-2.313s-2.19-.028-.153,1.364a5.95,5.95,0,0,1,2.491,3.284s1.317,4.006,7.561,2.648c.01,1.875.03,3.643.03,4.178,0,.593-.411,1.288-1.533,1.08A22.473,22.473,0,0,1,.437,26.872h0C.419,26.782.4,26.692.386,26.6Q.257,25.918.17,25.219c-.012-.092-.022-.183-.032-.276a22.443,22.443,0,1,1,44.746-2.5Z" transform="translate(0)" fill="#222123"/>
      <path id="Path_315" data-name="Path 315" d="M90.5,363.261c-.162-.077-.338-.045-.387.07s.038.264.2.337.335.044.385-.068S90.665,363.334,90.5,363.261Z" transform="translate(-82.202 -331.378)" fill="#222123"/>
      <path id="Path_316" data-name="Path 316" d="M101.123,372.184c-.147-.156-.35-.2-.46-.1a.342.342,0,0,0,.065.466c.142.157.352.2.459.1S101.27,372.343,101.123,372.184Z" transform="translate(-91.778 -339.416)" fill="#222123"/>
      <path id="Path_317" data-name="Path 317" d="M111.136,385.341c-.141-.2-.363-.284-.5-.189s-.141.335,0,.535.364.289.5.193S111.274,385.543,111.136,385.341Z" transform="translate(-100.84 -351.353)" fill="#222123"/>
      <path id="Path_318" data-name="Path 318" d="M123.114,399.833c-.193-.184-.457-.222-.582-.086a.432.432,0,0,0,.127.573c.192.185.454.222.577.086S123.309,400.013,123.114,399.833Z" transform="translate(-111.731 -364.629)" fill="#222123"/>
      <path id="Path_319" data-name="Path 319" d="M140.189,410.821c-.257-.08-.51,0-.562.18s.114.384.368.461.507-.005.562-.181S140.442,410.9,140.189,410.821Z" transform="translate(-127.377 -374.779)" fill="#222123"/>
      <path id="Path_320" data-name="Path 320" d="M160.756,414.186c-.268,0-.479.156-.479.343s.22.332.488.326.483-.157.476-.342S161.023,414.18,160.756,414.186Z" transform="translate(-146.227 -377.876)" fill="#222123"/>
      <path id="Path_321" data-name="Path 321" d="M180.815,411.931c-.034-.184-.272-.292-.537-.246s-.45.234-.417.419.274.29.535.243S180.846,412.112,180.815,411.931Z" transform="translate(-164.09 -375.586)" fill="#222123"/>
    </g>
  </g>
  <g id="Layer_x0020_1" transform="translate(235.047 69.769)">
    <rect id="Rectangle_72" data-name="Rectangle 72" width="43.435" height="43.435" transform="translate(0 0)" fill="#ff2bc2"/>
    <rect id="Rectangle_73" data-name="Rectangle 73" width="37.956" height="37.565" transform="translate(3.13 3.13)" fill="#2e001e"/>
    <path id="Path_346" data-name="Path 346" d="M3962.744,5207.41c.146.317.363.705.443.868.222.446.439.86.66,1.3l3.587,7.141c.1.208.3.443.2.669L3962.6,5227c-.12.237-.385.515.1.515h2.983c.423,0,.429-.224.7-.794l3.416-7.157c.234.205,3.024,6.262,3.7,7.644.118.241.147.307.489.307a33.793,33.793,0,0,0,3.393-.052c.054-.279-.429-1.052-.572-1.323l-1.325-2.544c-1.05-2.018-2.25-4.467-3.312-6.386-.218-.391-.135-.371.354-1.275.237-.441.435-.845.671-1.284.217-.408.438-.828.655-1.255l1.994-3.839a22.589,22.589,0,0,0,1.218-2.443c.049-.174-.24-.163-.445-.163l-2.636,0h-.043c-.289,0-.332.057-.435.266l-2.589,5.525a21.059,21.059,0,0,1-.94,1.993c-.271-.671-.6-1.319-.9-1.989l-1.892-3.984c-.171-.325-.3-.657-.466-.98-.088-.177-.166-.325-.243-.5-.109-.244-.094-.332-.417-.332l-3.021,0C3962.586,5206.956,3962.541,5206.97,3962.744,5207.41Z" transform="translate(-3954.303 -5195.347)" fill="#ff3bc1" fill-rule="evenodd"/>
    <path id="Path_347" data-name="Path 347" d="M9442.449,5221.2a6,6,0,0,1,.824-3.475,4.415,4.415,0,0,1,.56-.7,3.9,3.9,0,0,1,3.8-.852l.006,9.465C9444.66,5226.488,9442.449,5224.653,9442.449,5221.2Zm5.188-8.042-1.215-.022a7.548,7.548,0,0,0-5.317,2.229,8.259,8.259,0,0,0-2.1,5.462,8.344,8.344,0,0,0,1.8,5.858,6.718,6.718,0,0,0,5.021,2.138,10.992,10.992,0,0,0,3.148-.368,8.65,8.65,0,0,0,2.141-.844,7.8,7.8,0,0,0-.059-1.094c-.037-1.125-.012-2.628-.009-3.779l0-14.36c0-.285.016-.372-.285-.372h-2.841c-.395,0-.28.244-.28,1.074Z" transform="translate(-9415.229 -5196.396)" fill="#fe31c0" fill-rule="evenodd"/>
  </g>
  <g id="adobe" transform="translate(176.368 69.769)">
    <path id="Path_344" data-name="Path 344" d="M24.8,155.549h40.88v39.765H24.8Z" transform="translate(-22.945 -153.691)" fill="url(#radial-gradient)"/>
    <path id="Path_345" data-name="Path 345" d="M1.858,132.6h40.88v39.765H1.858ZM0,174.227H44.6V130.746H0Zm29.211-27.984c0-.149.056-.223.223-.223h2.917c.149,0,.223.056.223.223V160.9c0,.149-.037.223-.223.223h-2.88c-.186,0-.242-.093-.242-.242V146.243Zm-.2-4.218a1.9,1.9,0,0,1,3.791,0,1.776,1.776,0,0,1-1.932,1.9A1.747,1.747,0,0,1,29.006,142.025Zm-8.362,10.331c-.52-2.063-1.747-6.559-2.211-8.733H18.4c-.39,2.174-1.375,5.853-2.155,8.733Zm-5.166,3.01-1.468,5.575c-.037.149-.093.186-.279.186H11c-.186,0-.223-.056-.186-.279l5.277-18.47a6.02,6.02,0,0,0,.186-1.542c0-.13.056-.186.149-.186h3.9c.13,0,.186.037.223.186l5.909,20.05c.037.149,0,.242-.149.242H23.227c-.149,0-.242-.037-.279-.167l-1.524-5.593Z" transform="translate(0 -130.746)" fill="#ff7f18"/>
  </g>
  <g id="photoshop" transform="translate(116.69 68.838)">
    <path id="Path_348" data-name="Path 348" d="M24.8,155.549H66.721v40.775H24.8Z" transform="translate(-22.898 -153.644)" fill="url(#radial-gradient-2)"/>
    <path id="Path_349" data-name="Path 349" d="M1.905,132.651H43.824v40.775H1.905ZM0,175.332H45.729V130.746H0Zm30.829-26.294c-1.505,0-2.02.762-2.02,1.391,0,.686.343,1.162,2.363,2.21,2.991,1.448,3.925,2.839,3.925,4.878,0,3.049-2.325,4.687-5.468,4.687a8.289,8.289,0,0,1-3.906-.819c-.133-.057-.152-.152-.152-.3v-2.8c0-.19.1-.248.229-.152a7.072,7.072,0,0,0,3.83,1.124c1.505,0,2.134-.629,2.134-1.486,0-.686-.438-1.3-2.363-2.286-2.706-1.3-3.83-2.61-3.83-4.8,0-2.458,1.924-4.5,5.259-4.5a8.761,8.761,0,0,1,3.411.533.422.422,0,0,1,.191.381v2.61c0,.152-.1.248-.286.191a6.436,6.436,0,0,0-3.315-.857Zm-16.386,2.267c.438.038.781.038,1.543.038,2.229,0,4.325-.781,4.325-3.811,0-2.42-1.505-3.639-4.039-3.639-.762,0-1.486.038-1.829.057Zm-3.391-10.118c0-.133.267-.229.419-.229,1.22-.057,3.03-.1,4.916-.1,5.278,0,7.336,2.9,7.336,6.593,0,4.84-3.506,6.916-7.812,6.916-.724,0-.972-.038-1.486-.038v7.317c0,.152-.057.229-.229.229H11.28c-.152,0-.229-.057-.229-.229V141.187Z" transform="translate(0 -130.746)" fill="#31c5f0"/>
  </g>
  <g id="front_end_javascript_jquery_js_library_long_shadow_web_web-1320184848288229667_0" data-name="front+end+javascript+jquery+js+library+long+shadow+web+web-1320184848288229667_0" transform="translate(234.44 0.465)">
    <path id="Path_350" data-name="Path 350" d="M0,43.937H43.937V0H0V43.937" fill="#3558a8"/>
    <path id="Path_351" data-name="Path 351" d="M107.432,225H82.2L81,230.921l21.968,18.707h15.017V234.01L107.432,225" transform="translate(-74.05 -205.692)" fill="#010101" opacity="0.102"/>
    <path id="Path_352" data-name="Path 352" d="M319.577,228.355l.026.108a.043.043,0,0,1-.044.056" transform="translate(-292.136 -208.759)" fill="#5da3c2"/>
    <path id="Path_353" data-name="Path 353" d="M293.191,226.195l-.019.093-.226,1.056.237-1.113.008-.036" transform="translate(-267.807 -206.784)" fill="#5da3c2"/>
    <path id="Path_354" data-name="Path 354" d="M215.693,234.431l-.125.441.125-.441h0" transform="translate(-197.069 -214.314)" fill="#5da3c2"/>
    <path id="Path_355" data-name="Path 355" d="M332.308,207.29l-.134-.568c-.106-.411-.406-.606-1.082-.606h-2.84a.135.135,0,0,0-.144.094l-1.077,5.109a.353.353,0,0,0-.011.142c.008.033.134.027.2.027h.984a1.051,1.051,0,0,0,.22-.009c.036-.015.052-.112.066-.177l.348-1.791.425-1.987a.154.154,0,0,1,.143-.116l2.813,0a.09.09,0,0,0,.091-.116" transform="translate(-298.954 -188.428)" fill="#fff"/>
    <path id="Path_356" data-name="Path 356" d="M376.478,195.656H375.23a.284.284,0,0,0-.186.124L372.854,199c-.037.054-.08.052-.094-.011l-.162-.706a.155.155,0,0,0-.145-.116h-1.407a.088.088,0,0,0-.087.117l.631,2.212a.518.518,0,0,1,0,.23l-.294,1.12c-.016.064.025.083.091.083h1.39c.065,0,.133-.019.149-.083l.294-1.136a.677.677,0,0,1,.1-.2l3.574-4.739c.04-.052.034-.114-.031-.114h-.389" transform="translate(-339.122 -178.866)" fill="#fff"/>
    <path id="Path_357" data-name="Path 357" d="M207.931,206.167h-1.27c-.065,0-.131.023-.144.087l-.42,1.964-.418,1.881c-.013.064-.078.059-.144.059H204.7c-.826,0-.731-.522-.561-1.3,0-.008.53-2.6.53-2.6.012-.064-.031-.087-.1-.087h-1.21c-.065,0-.13.023-.143.087l-.487,2.6c-.243,1.405-.25,2.642,1.379,2.682.027,0,2.573,0,2.573,0,.066,0,.131-.022.145-.085l.553-2.606.55-2.617s.02-.06,0-.06" transform="translate(-185.228 -188.475)" fill="#fff"/>
    <path id="Path_358" data-name="Path 358" d="M98.42,206.116H97.059c-.065,0-.131.016-.146.08l-.246,1.063a.09.09,0,0,0,.094.113h1.3a.162.162,0,0,0,.145-.123l.237-1.071s.019-.062-.026-.062" transform="translate(-88.369 -188.428)" fill="#fff"/>
    <path id="Path_359" data-name="Path 359" d="M70.585,224.934a.156.156,0,0,0-.145.116l-.184.811-.41,1.873s-.218,1-.239,1.058c0,0-.184.719-.622.69a3.931,3.931,0,0,1-.437-.06h0c-.122-.037-.131.09-.146.154l-.271,1.167a.1.1,0,0,0,.091.122,8.932,8.932,0,0,0,1,.083h.068c1.023,0,1.563-.6,1.909-2.234l.4-1.89.38-1.758a.1.1,0,0,0-.09-.123" transform="translate(-62.282 -205.632)" fill="#fff"/>
    <path id="Path_360" data-name="Path 360" d="M267.707,208.271c0,.071-.224.058-.224.058l-1.786-.013c-.062,0-.079-.086-.084-.148a.8.8,0,0,1,.01-.092,1.108,1.108,0,0,1,1.2-.752c.735,0,.892.364.892.768m-.614-2.068c-2.291,0-2.838,1.416-3.142,2.819-.3,1.431-.278,2.562,2.092,2.562h2.168a.16.16,0,0,0,.141-.123l.233-.908c.014-.064-.03-.083-.095-.083h-2.132c-.772,0-1.049-.238-1.021-.772,0-.061.069-.215.134-.215h3.284c.144,0,.149-.085.149-.085.334-1.509.356-3.194-1.812-3.194" transform="translate(-241.186 -188.343)" fill="#fff"/>
    <path id="Path_361" data-name="Path 361" d="M123.932,192.9l-.264.9a.167.167,0,0,1-.158.105h-1.362c-1.033,0-1.285-.8-1.033-1.99.252-1.218.752-1.972,1.768-2.048,1.39-.1,1.674.877,1.337,2l-.288,1.026m1.21.956a15.261,15.261,0,0,0,.787-2.459,2.491,2.491,0,0,0-2.735-2.954c-2.318,0-3.323,1.669-3.708,3.484s.119,3.419,2.423,3.406l3.518,0a.165.165,0,0,0,.149-.115l.3-1.129a.088.088,0,0,0-.09-.116l-.283,0h-.283a.073.073,0,0,1-.08-.085.083.083,0,0,1,.006-.026" transform="translate(-109.126 -172.275)" fill="#fff"/>
  </g>
</svg>
