<svg xmlns="http://www.w3.org/2000/svg" xmlns:xlink="http://www.w3.org/1999/xlink" width="96.911" height="70.906" viewBox="0 0 96.911 70.906">
  <defs>
    <filter id="Path_5" x="0" y="1.303" width="73.402" height="69.603" filterUnits="userSpaceOnUse">
      <feOffset dx="8" dy="7" input="SourceAlpha"/>
      <feGaussianBlur stdDeviation="4.5" result="blur"/>
      <feFlood flood-color="#1a1818" flood-opacity="0.2"/>
      <feComposite operator="in" in2="blur"/>
      <feComposite in="SourceGraphic"/>
    </filter>
  </defs>
  <g id="Group_461" data-name="Group 461" transform="translate(-545.935 -92)">
    <g id="Group_2" data-name="Group 2" transform="translate(547.312 92.5)">
      <g id="Group_1" data-name="Group 1">
        <path id="Path_1" data-name="Path 1" d="M612.79,96.331l-1.912.232q0-.116,0-.232c0-2.1.865-3.831,1.916-3.831s1.916,1.729,1.916,3.831Z" transform="translate(-586.172 -92.5)" fill="#ffe558" stroke="#efefef" stroke-miterlimit="10" stroke-width="1"/>
        <path id="Path_2" data-name="Path 2" d="M603.678,130.072c-.011,12.676-10.3,24.1-23.492,24.1s-23.5-11.415-23.492-24.1c.005-13.04,10.91-24.487,24.2-24.1C593.692,106.351,603.688,117.564,603.678,130.072Z" transform="translate(-553.048 -100.733)" fill="#77c9ff"/>
        <path id="Path_3" data-name="Path 3" d="M562.432,115.616c-2.932,6.483,4.9,21.042,17.946,22.786,15.209,2.033,26.232-14.864,23.794-21.778C600.758,106.939,566.961,105.6,562.432,115.616Z" transform="translate(-556.181 -102.408)" fill="#76c8fe"/>
        <path id="Path_4" data-name="Path 4" d="M596.715,144.816l-49-1.412c2.858-.268,6.435-.732,6.453-1.411.019-.727-4.039-1.416-6.856-1.815l49.4-.2a2.42,2.42,0,0,1,0,4.84Z" transform="translate(-547.312 -121.526)" fill="#76c8fe"/>
        <ellipse id="Ellipse_1" data-name="Ellipse 1" cx="4.84" cy="2.218" rx="4.84" ry="2.218" transform="translate(21.576 2.924)" fill="#75c6fc"/>
        <ellipse id="Ellipse_2" data-name="Ellipse 2" cx="4.235" cy="2.924" rx="4.235" ry="2.924" transform="translate(31.154 18.551)" fill="#ffee93" stroke="#efefef" stroke-miterlimit="10" stroke-width="1"/>
        <ellipse id="Ellipse_3" data-name="Ellipse 3" cx="2.016" cy="1.21" rx="2.016" ry="1.21" transform="translate(33.473 20.064)" fill="#3595d4"/>
        <ellipse id="Ellipse_4" data-name="Ellipse 4" cx="0.907" cy="0.504" rx="0.907" ry="0.504" transform="translate(34.482 20.87)" fill="#f5f6f8"/>
        <g transform="matrix(1, 0, 0, 1, -1.38, -0.5)" filter="url(#Path_5)">
          <path id="Path_5-2" data-name="Path 5" d="M604.274,128.525c-1.845,15.3-13.284,25.783-24.8,25.609-8.02-.122-16.8-5.419-19.358-13.511-3.824-12.1,7.869-25.423,18.753-27.424.544-.1,5.357-1.511,6.251,0,1.738,2.94-13.513,13.136-11.494,17.342,1.444,3.007,11.691-.554,13.914,3.63a5.465,5.465,0,0,1,.2,4.033c-.855,2.509-3.44,3.243-3.226,4.033.241.89,3.824,1.091,6.654.4C598.408,140.88,602.486,132.87,604.274,128.525Z" transform="translate(-553.31 -104.23)" fill="#ffee93" stroke="#efefef" stroke-miterlimit="10" stroke-width="1"/>
        </g>
        <path id="Path_6" data-name="Path 6" d="M628,107.547" transform="translate(-596.64 -101.699)" fill="#fff" stroke="#030504" stroke-miterlimit="10" stroke-width="1"/>
      </g>
      <path id="Path_706" data-name="Path 706" d="M5.312-4.813A1.391,1.391,0,0,0,3.77-6.3H.405v4.711H3.77A1.4,1.4,0,0,0,5.312-3.083a1.513,1.513,0,0,0-.283-.882A1.426,1.426,0,0,0,5.312-4.813Zm-1.77-.256a.235.235,0,0,1,.256.249.246.246,0,0,1-.256.262H1.98v-.512Zm0,2.248H1.98v-.518H3.541a.24.24,0,0,1,.256.256A.246.246,0,0,1,3.541-2.82Zm3.688.141V-5.661H5.85v4.072h3.6v-1.09Zm4.658,1.158a1.934,1.934,0,0,0,2.181-2.16V-5.661h-1.38v2.08c0,.592-.269.9-.767.9-.478,0-.787-.31-.787-.9v-2.08H9.754v1.979A1.909,1.909,0,0,0,11.887-1.521Zm6.69-3.049v-1.09h-3.87v4.072h3.87v-1.09h-2.49v-.4h2.49v-1.09h-2.49v-.4Zm6.63-.485V-6.3H21.068v4.711h1.575V-3.325h2.564V-4.57H22.643v-.485Zm3.2,3.466h1.548l-1.36-4.072H26.479l-1.36,4.072h1.548L26.8-2.06h1.467ZM27.1-3.15l.4-1.42h.067l.4,1.42Zm5.068,1.629a2.1,2.1,0,0,0,1.5-.633L32.7-3.116a.732.732,0,0,1-.532.229.741.741,0,0,1-.747-.747.74.74,0,0,1,.747-.74.731.731,0,0,1,.525.215l.962-.949a2.1,2.1,0,0,0-1.487-.619,2.1,2.1,0,0,0-2.107,2.1A2.105,2.105,0,0,0,32.173-1.521ZM37.981-4.57v-1.09h-3.87v4.072h3.87v-1.09h-2.49v-.4h2.49v-1.09h-2.49v-.4Z" transform="translate(55.082 25.24)" fill="#1a1818"/>
      <path id="Path_708" data-name="Path 708" d="M3.645-2.028c1.678,0,3.168-.8,3.168-2.917V-8.4h-2.1v3.419c0,.79-.359,1.2-1.023,1.2-.637,0-1.05-.413-1.05-1.2V-8.4H.54v3.455C.54-2.827,1.994-2.028,3.645-2.028Zm4.02-.09h2.1V-8.4h-2.1Z" transform="translate(55.13 35.049)" fill="#76c8fe"/>
      <path id="Path_707" data-name="Path 707" d="M2.9-5.6H.36v4.188H2.855A2.121,2.121,0,0,0,4.913-3.536,2,2,0,0,0,2.9-5.6ZM2.478-2.519H1.76V-4.493h.67c.646,0,1.071.275,1.071.951A.973.973,0,0,1,2.478-2.519ZM8.8-4.062v-.969H5.362v3.62H8.8v-.969H6.588V-2.74H8.8v-.969H6.588v-.353Zm.515,2.65H11.53a1.2,1.2,0,0,0,1.34-1.179c0-.676-.5-1.119-1.358-1.119h-.8c-.15,0-.209-.084-.209-.179s.06-.173.209-.173h1.974v-.969H10.519A1.153,1.153,0,0,0,9.25-3.883a1.072,1.072,0,0,0,1.2,1.143h.939c.156,0,.227.06.227.173s-.066.185-.221.185H9.316Zm4,0h1.226v-3.62H13.318Zm3.584.066a1.853,1.853,0,0,0,1.855-1.723l.012-.2-1.9-.006v.425l.574.006a.516.516,0,0,1-.526.347.734.734,0,0,1-.754-.76.707.707,0,0,1,.736-.736.689.689,0,0,1,.64.407l1.2.006A1.784,1.784,0,0,0,16.9-5.091a1.865,1.865,0,0,0-1.879,1.873A1.869,1.869,0,0,0,16.9-1.346Zm2.345-.066h1.226V-3.279h.048l1.615,1.867h1.226v-3.62H22.137v1.914H22.1L20.474-5.032H19.247Zm8.124-2.65v-.969h-3.44v3.62h3.44v-.969H25.158V-2.74h2.214v-.969H25.158v-.353Z" transform="translate(68.162 32.247)" fill="#1a1818"/>
    </g>
  </g>
</svg>
