<svg xmlns="http://www.w3.org/2000/svg" width="36.328" height="36.328" viewBox="0 0 36.328 36.328">
  <path id="Icon_awesome-whatsapp" data-name="Icon awesome-whatsapp" d="M30.887,7.529A18.007,18.007,0,0,0,2.554,29.252L0,38.578l9.544-2.506a17.947,17.947,0,0,0,8.6,2.189h.008a18.175,18.175,0,0,0,18.172-18A18.072,18.072,0,0,0,30.887,7.529Zm-12.731,27.7a14.936,14.936,0,0,1-7.622-2.084L9.99,32.82,4.33,34.3l1.508-5.522-.357-.568A14.991,14.991,0,1,1,33.287,20.26,15.129,15.129,0,0,1,18.156,35.229Zm8.206-11.206c-.446-.227-2.66-1.314-3.073-1.46s-.714-.227-1.014.227-1.16,1.46-1.427,1.768-.527.341-.973.114c-2.643-1.322-4.379-2.36-6.122-5.352-.462-.795.462-.738,1.322-2.457a.834.834,0,0,0-.041-.787c-.114-.227-1.014-2.441-1.387-3.341-.365-.876-.738-.754-1.014-.77-.259-.016-.56-.016-.86-.016a1.666,1.666,0,0,0-1.2.56A5.054,5.054,0,0,0,9,16.262a8.812,8.812,0,0,0,1.833,4.654c.227.3,3.171,4.841,7.687,6.8,2.854,1.233,3.973,1.338,5.4,1.127.868-.13,2.66-1.087,3.033-2.141a3.762,3.762,0,0,0,.259-2.141C27.108,24.355,26.808,24.241,26.362,24.022Z" transform="translate(0 -2.25)" fill="#25d366"/>
</svg>
